<svg width="42" height="70" viewBox="0 0 42 70" fill="none" xmlns="http://www.w3.org/2000/svg">
<path d="M10.1888 40.7267V40.2267H9.68877H0.924683V28.1105H9.68877H10.1888V27.6105V21.9643C10.1888 14.732 11.9024 9.54406 15.3736 6.15648C18.8473 2.76641 24.1757 1.08667 31.6138 1.08667C34.2554 1.08667 38.7232 1.55974 40.8691 2.04004V12.9983C39.7505 12.9195 38.1171 12.8811 36.1756 12.8811C32.4595 12.8811 29.7465 13.5474 27.9731 15.2108C26.1914 16.8821 25.4711 19.4516 25.4711 22.9702V27.6105V28.1105H25.9711H40.0337L37.6998 40.2267H25.9711H25.4711V40.7267V68.7526H10.1888V40.7267Z" fill="#4772DE" stroke="#4772DE"/>
</svg>
