<svg width="58" height="63" viewBox="0 0 58 63" fill="none" xmlns="http://www.w3.org/2000/svg">
<path d="M43.9158 15.16C43.8772 15.1183 43.8644 15.0864 43.8603 15.0726C43.8606 15.0717 43.8609 15.0708 43.8612 15.0699C43.8666 15.0544 43.8812 15.0223 43.9193 14.9812C43.993 14.9018 44.1701 14.7851 44.4197 14.7851C44.5296 14.7851 44.6408 14.8105 44.7364 14.8541C44.8281 14.896 44.8878 14.9461 44.9224 14.9835C44.9599 15.0242 44.9737 15.0553 44.9787 15.0699C44.9789 15.0706 44.9791 15.0713 44.9793 15.0719C44.9755 15.0853 44.9629 15.1176 44.9237 15.16C44.856 15.2331 44.6798 15.3546 44.4197 15.3546C44.1597 15.3546 43.9834 15.2331 43.9158 15.16Z" fill="#4772DE" stroke="#4772DE" stroke-width="8"/>
</svg>
