<svg width="59" height="59" viewBox="0 0 59 59" fill="none" xmlns="http://www.w3.org/2000/svg">
<path d="M58.0106 37.1679V57.8533H46.8944V39.5791C46.8944 37.364 46.8781 34.7087 46.0359 32.609C45.6089 31.5444 44.9613 30.5981 43.979 29.9215C42.9961 29.2445 41.7204 28.8668 40.0882 28.8668C38.4476 28.8668 37.1182 29.1832 36.0516 29.7662C34.982 30.351 34.2058 31.1882 33.6507 32.1822C32.5535 34.1466 32.3159 36.7329 32.3159 39.2568V57.8533H21.1996V20.2863H31.8328V25.0472V25.5472H32.3328H32.5025H32.8023L32.9435 25.2828C34.4786 22.4097 38.2684 19.3193 43.979 19.3193C49.9948 19.3193 53.4426 21.2652 55.4256 24.3748C57.4416 27.5362 58.0106 31.9957 58.0106 37.1679ZM12.6139 57.8533H1.48466V20.2863H12.6139V57.8533ZM7.04277 14.0254C3.44133 14.0254 0.518494 11.0774 0.518494 7.52382C0.518494 5.81861 1.20433 4.18196 2.4272 2.97427C3.65027 1.76636 5.31043 1.08667 7.04277 1.08667C8.77512 1.08667 10.4353 1.76636 11.6583 2.97427C12.8812 4.18196 13.567 5.81861 13.567 7.52382C13.567 11.0774 10.6442 14.0254 7.04277 14.0254Z" fill="#4772DE" stroke="#4772DE"/>
</svg>
