<?xml version="1.0" encoding="utf-8"?>
<!-- Generator: Adobe Illustrator 28.1.0, SVG Export Plug-In . SVG Version: 6.00 Build 0)  -->
<svg version="1.1" id="Lag_1" xmlns="http://www.w3.org/2000/svg" xmlns:xlink="http://www.w3.org/1999/xlink" x="0px" y="0px"
	 viewBox="0 0 494.3 237.6" style="enable-background:new 0 0 494.3 237.6;" xml:space="preserve">
<style type="text/css">
	.st0{font-family:'Vogue-Regular';}
	.st1{font-size:221.5px;}
	.st2{font-size:72.95px;}
</style>
<g>
	<g>
		<text transform="matrix(0.81 0 0 1 7.4402 205.1934)" class="st0 st1">sp cy</text>
	</g>
	<g>
		<text transform="matrix(1.439904e-03 -0.75 1 2.967068e-03 486.8701 204.443)" class="st0 st2">media</text>
	</g>
</g>
<g>
	<path d="M238.3,41.6c0,0.5-0.6,2.7-0.5,2.9c3,0.4,5.5,1.6,7.8,3c4.8,2.8,10.3,8,15.1,12.1c4.4,3.8,6.1,5,6,5.4
		c-0.2,0.7-6.4-3.4-13.3-5.8c-7.2-2.5-14.4-2.6-21.2-1.4c-0.9,5.5-2.1,13.4-3.1,23.1c-2.1,20.3-2.2,37.7-1.7,60.3
		c1.3,52.7,4.9,65.2,1.3,67.1c-5.8,3.1-23.1-24.3-28.3-55.6c-3.2-18.9-1.2-35.1-0.1-43.8c2.6-19.9,8-36.3,12.6-47.7
		c-0.7,0.1-1.9,0.6-2,0.6c-3.3,0.4-3.3,1-3.5,1.1c-3.2,0.8-6.5,1.6-9.7,2.4c8.4-8.2,18-15.2,28.1-20.2c1.3-1.3,1.2-5.8,1.5-7.3
		c0.3-1.5,1.6-10.1,1.1-10.6c-3.2-2.4-6.2-2.9-8.5-2.9c-4.8,0-8.3,2.5-10,0.9c-0.8-0.8-0.7-2.2-0.6-4c0.2-2,0.9-4.2,1.7-5.3
		c3.7-4.6,24.2-8,29,6.9C242.6,30.5,239.4,39.1,238.3,41.6L238.3,41.6L238.3,41.6z"/>
	<path d="M253.3,57.5c-0.4,5.1-1.5,12.8-4.5,21.3c-1.7,5-3.3,7.7-4.8,10.8c-1.1,2.3-10.8,23.1-12.9,48.9c-0.6,7.6-0.3,13,0.3,17.6
		c0.9,6.4,2.3,11.1,3.6,15.3c1.9,6.1,4.4,12.2,6.4,16.1c0,0,10.1,18.4,26.4,23.5c0.1,0,0.5,0.2,1.1,0.4c2.7,1,4.7,2,5.2,2.2
		c4.9,2.5,12.2,3.1,12.2,4.9c0,1-1.7,2.4-9.8,4.1c-3.6,1.4-8.9,2.9-15.1,3c-1.8,0-7.1-0.1-13.7-2.2c-1.5-0.5-7.6-2.6-14.9-7.9
		c-10.5-7.6-17.8-17.6-22.4-25.4c0,0-8.8-14.4-13.2-31.4c-11.4-43.7,11.8-92.6,14-96.9c0.1,0,1.3-0.5,2-0.6
		c-7,18.3-11.1,33.1-12.7,47.7c-1.8,16.1-0.3,28.6,0.6,35.3c3.2,21.6,23.7,63.3,28.6,59.9c2.9-2-4.2-16.2-6.5-50.2
		c-0.7-10-2.1-38.9,4.3-74.2c1.6-9.1,3.4-16.5,4.8-21.9c0.9-1.9,2.4-4.7,5.1-6.3C242.4,48.7,248.7,51,253.3,57.5L253.3,57.5
		L253.3,57.5z"/>
</g>
</svg>
