<?xml version="1.0" encoding="UTF-8"?>
<svg id="Lag_1" data-name="Lag 1" xmlns="http://www.w3.org/2000/svg" viewBox="0 0 395.03 127.04">
  <defs>
    <style>
      .cls-1 {
        font-size: 122.92px;
      }

      .cls-1, .cls-2 {
        font-family: Vogue-Regular, Vogue;
      }

      .cls-1, .cls-2, .cls-3 {
        isolation: isolate;
      }

      .cls-2 {
        font-size: 58.29px;
      }

      .cls-4 {
        stroke-width: 0px;
      }
    </style>
  </defs>
  <g>
    <g id="spicy_media-2" data-name="spicy media-2" class="cls-3">
      <text class="cls-1" transform="translate(0 102.45) scale(1.17 1)"><tspan x="0" y="0">sp cy</tspan></text>
    </g>
    <g class="cls-3">
      <text class="cls-2" transform="translate(383.14 102.05) rotate(-89.84) scale(.52 1) skewX(.08)"><tspan x="0" y="0">media</tspan></text>
    </g>
  </g>
  <g>
    <path class="cls-4" d="M179.11,27.53c-.03.23-.45,1.2-.38,1.34,1.3.54,2.3,1.4,3.24,2.35,1.36,1.38,5.18,6.11,5.87,7.58.54,1.15-1.6-.3-3.19-1.06-2.88-1.37-5.84-2.63-9.2-3.18-.83,2.43-1.94,6.11-2.77,10.69-2.3,12.75-.05,19.66,0,30,.06,14.27-4.09,30.84-8,31-3.92.16-8.68-16.12-9-30-.22-9.44,1.63-16.98,2.65-20.99,2.35-9.23,5.76-16.45,8.46-21.34-.33-.06-.87.05-.91.04-1.47-.21-1.51.09-1.59.09-1.47,0-2.94,0-4.4-.03,4.17-2.92,8.82-5.15,13.57-6.31.66-.48.89-2.63,1.09-3.33.21-.71,1.3-4.64,1.12-4.97-1.28-1.52-2.53-2.15-3.53-2.42-2.08-.57-3.81.21-4.45-.74-.32-.48-.18-1.14,0-2,.2-.93.65-1.92,1.07-2.31,1.95-1.84,11.57,1.63,12.27,6.75.12.84-1.66,7-1.91,8.83h-.01Z"/>
    <path class="cls-4" d="M184.65,37.74c.64,8.73-4,22.22-6.24,33.18-1.62,7.96-3.34,15.96-3.83,24.06-.04.58-.22,3.73-1.9,7.27-.85,1.79-3.3,6.94-7,7-2.59.04-4.57-2.41-5.76-3.87,0,0-1.99-3.26-3.33-7.35-5-15.23-5.34-48.88,9.28-64.07.04,0,.59-.11.91-.04-4.19,7.96-6.88,14.53-8.46,21.34-1.74,7.52-1.87,13.68-1.84,16.98.17,15.53,5.48,32.38,8.96,32.11,3.38-.26,4.1-16.77,5.07-20.56,4.61-17.86-2.53-24.38,1.48-39.32.89-3.31,2.37-6.62,3.44-9.92,3.36.55,6.33,1.8,9.2,3.18h.02Z"/>
  </g>
</svg>