<?xml version="1.0" encoding="UTF-8"?>
<svg id="Lag_1" data-name="Lag 1" xmlns="http://www.w3.org/2000/svg" viewBox="0 0 1587.83 2254.3">
  <defs>
    <style>
      .cls-1 {
        fill: #e51040;
        opacity: .11;
        stroke-width: 0px;
      }
    </style>
  </defs>
  <path class="cls-1" d="M1322.47,1649.93c-3.44-7.84-6.88-15.68-10.32-23.52,3.21,3.42,6.43,6.84,9.64,10.25-4.08-4.64-7.8-9.56-11.15-14.75-2.75-4.24-5.22-8.62-7.42-13.16-2.44-4.56-4.63-9.25-6.55-14.06-2.69-6.54-5.04-13.2-7.04-19.99,3.49,12.06,6.99,24.12,10.48,36.18-4.43-15.54-8.85-31.08-13.28-46.63,3.22,12.13,6.44,24.26,9.67,36.39-4.99-23.1-9.99-46.21-14.98-69.31,2.22,12.33,4.45,24.66,6.67,36.99-2.45-16.14-4.91-32.28-7.36-48.42l5.5,37.14c-1.88-16.26-3.75-32.51-5.63-48.77,1.42,12.42,2.83,24.83,4.25,37.25-2.12-24.33-2.5-48.73-1.14-73.2,0,12.43,0,24.85.01,37.28,1.67-20.66,3.34-41.32,5.01-61.98-27.68,132.58-55.36,265.17-83.03,397.75,50.53-153.77,101.06-307.53,151.59-461.3-22.48,27.96-44.96,55.93-67.43,83.89,34.36-30.36,63.77-64.45,88.22-102.28,1.29-1.71,2.31-3.56,3.05-5.57,2.37-5.02,4.41-10.18,6.13-15.47.71-2.21,1.43-4.43,2.14-6.64,1.68-6.74,1.8-13.73,1.35-20.61-.57-8.82-2.18-17.62-4.65-26.12-6.1-20.99-15.42-40.8-26.08-59.83-7.3-13.04-15.13-25.83-23.62-38.14-8.5-12.31-17.73-24.12-27.32-35.59-75.59-90.47-180.24-148.76-283.71-201.62-49.02-25.04-98.32-49.52-146.91-75.39-51.75-27.54-102.71-56.52-152.95-86.73-14.14-8.5-28.15-17.21-42.27-25.74-13-7.85-26.17-15.4-39.5-22.66-23.49-12.79-47.45-24.74-71.63-36.16-17.92-8.47-35.96-16.67-53.92-25.05-16.91-7.9-33.53-16.09-49.47-25.81l11.86,7.86c-3.37-2.09-6.61-4.36-9.71-6.83-2.89-2.09-5.61-4.39-8.15-6.9,51.97,98.62,103.93,197.24,155.9,295.87-54.77-113.54-109.54-227.09-164.31-340.63,46.01,142.77,92.02,285.54,138.03,428.32-21.24-191.92-42.48-383.84-63.72-575.76l.49,13.88,1.18-7.39.26-7.94c.41-6.05.39-12.1-.07-18.13,0-3-.37-5.96-1.08-8.87-3.1-17.23-11.05-33.29-20.2-48.08-13.28-21.45-30.16-40.6-47.79-58.54-9.43-9.6-19.19-18.82-29.21-27.8-14.86-13.32-29.64-26.71-45.56-38.78-13.18-9.99-26.67-19.62-40.55-28.63-13.75-8.92-27.9-17.25-42.2-25.25-17.38-9.73-35.35-18.48-53.48-26.73-13.97-6.35-28.08-12.3-42.38-17.88-29.74-11.6-60.08-21.61-90.86-30.06s-58.86-14.42-88.68-20c-3.25,10.97-2.32,21.68,2.79,32.14,7.33,30.98,17.72,61,31.18,90.07,13.42,33.93,26.84,67.86,40.26,101.79,22.86,57.71,47.07,114.85,72.63,171.41,7.2,13.59,14.39,27.19,21.59,40.78-5.8-11.02-11.6-22.04-17.4-33.07,6.81,13.86,13.62,27.71,20.44,41.57-5.44-11.21-10.88-22.43-16.32-33.64,6.39,14.11,12.77,28.21,19.16,42.32-5.06-11.4-10.11-22.8-15.17-34.2,7.9,23.14,15.81,46.28,23.71,69.42-3.28-12.05-6.56-24.09-9.85-36.14,4.16,17.72,8.31,35.45,12.47,53.17-2.26-12.27-4.53-24.55-6.79-36.82,2.86,17.66,5.73,35.33,8.59,52.99-1.18-12.41-2.36-24.82-3.53-37.23,1.65,17.46,3.31,34.93,4.97,52.39.45,4.78,1.02,9.54,1.69,14.3.48,3.52,1.11,7.01,1.9,10.46,1.74,8.15,3.41,16.31,5,24.49,1.13,5.33,2.73,10.51,4.82,15.55,1.44,4.39,3.15,8.67,5.12,12.84,3.6,7.59,7.77,14.89,11.85,22.23,7.22,12.99,14.17,26.09,20.97,39.31,6.25,12.15,12.45,24.33,18.98,36.34,8.97,16.47,18.53,32.54,29.05,48.07,11.89,17.55,24.86,34.32,38.99,50.13,30.8,34.48,67.09,63.54,106.3,87.93,7.92,5.48,16.26,10.17,25.02,14.08,6.49,3.23,13.14,6.11,19.94,8.63,16.18,6.16,32.89,10.57,49.89,13.77,17.24,3.25,34.55,4.83,51.85,7.38,10.94,1.62,21.92,3.57,32.46,6.97,7.33,2.37,14.48,5.19,21.42,8.55,9.8,4.75,19,10.48,28.16,16.33-3.95-2.62-7.91-5.25-11.86-7.87,23.62,15.88,46.85,32.3,70.16,48.63-3.88-2.74-7.75-5.48-11.63-8.22,7.19,5.12,14.38,10.24,21.57,15.36-3.86-2.76-7.72-5.53-11.58-8.29,7.29,5.27,14.58,10.53,21.88,15.8-3.84-2.79-7.69-5.58-11.53-8.37,7.4,5.42,14.8,10.84,22.2,16.25-3.83-2.82-7.65-5.63-11.48-8.45,7.51,5.58,15.02,11.15,22.53,16.73-3.81-2.84-7.61-5.69-11.42-8.53,7.62,5.74,15.24,11.48,22.87,17.22-3.79-2.87-7.58-5.74-11.36-8.61,7.74,5.91,15.47,11.81,23.21,17.72-3.77-2.9-7.54-5.8-11.31-8.7,7.85,6.08,15.7,12.16,23.56,18.24-3.75-2.93-7.5-5.85-11.25-8.78,7.97,6.26,15.93,12.52,23.9,18.78l-11.19-8.86c8.08,6.44,16.15,12.89,24.23,19.33-3.71-2.98-7.42-5.96-11.13-8.93,24.64,20.06,49.01,40.41,72.1,62.25,19.54,18.48,38.5,37.88,55.17,59.03,12.31,15.62,23.58,31.94,32.91,49.52,4.53,8.54,8.66,17.75,11.69,26.94.86,2.78,1.73,5.57,2.59,8.35,1.45,5.13,2.57,10.33,3.36,15.6-1.65-12.39-3.29-24.78-4.94-37.17,1.9,14.79,3.81,29.57,5.71,44.36-1.25-12.43-2.5-24.86-3.75-37.29.99,18.59,1.99,37.19,2.98,55.78,7.38-74.08,14.75-148.17,22.13-222.25-11.67,83.9-23.33,167.81-35,251.71l-.64,15.12c.34,1.18.86,2.16,1.5,3.21,1.48,2.41,3.32,4.67,4.95,6.98,2,2.82,3.91,5.69,5.74,8.62,4.76,7.64,8.96,15.56,12.08,24.02,4.24,11.48,6.46,23.53,8.06,35.63,1.96,14.82,3.02,29.76,4.59,44.63,2.27,21.59,5.39,43.06,10.25,64.23,5.02,21.87,11.86,43.21,20.62,63.88,4.7,11.09,9.91,21.87,15.66,32.46,7.54,13.88,15.79,27.43,25.04,40.26,7.93,11.01,16.25,21.79,25.01,32.16,9.35,11.08,19.28,21.7,29.37,32.1,5.11,5.15,10.22,10.3,15.33,15.45,5.53,5.99,11.06,11.98,16.58,17.98,10.63,11.1,21.71,21.84,33.07,32.19,22.46,20.47,46.26,39.42,70.67,57.5,18.09,13.39,36.52,26.3,54.89,39.3,5.95,4.17,11.85,8.41,17.71,12.71,10.35,7.4,20.58,14.96,30.67,22.71,2.46,1.65,4.93,3.31,7.39,4.96,1.85.59,3.7,1.18,5.56,1.77.98-2.32,1.96-4.64,2.94-6.96,1.36-4.39,2.71-8.77,4.07-13.16-.8-9.41-1.6-18.82-2.41-28.23-1-11.41-1.99-22.82-2.99-34.23-2.58-18.03-5.16-36.06-7.75-54.1-3.92-20.67-7.84-41.33-11.76-62-6.44-29.31-12.87-58.62-19.31-87.93-8.55-39.64-18.23-78.99-29.04-118.05-2.85-15.53-7.5-30.45-13.97-44.76-.84-7.96-4.28-14.11-10.33-18.46-3.78-6.07-6.06-5.55-6.83,1.56-5.46,11.32-5.55,23.48-.27,36.5Z"/>
  <path class="cls-1" d="M1415.73,1840.57c-2.89-11.88-9.24-20.56-19.03-26.03-4.76-4.14-8.99-8.76-12.7-13.86-4.22-5.51-8.16-11.21-11.8-17.11-3.72-6.02-7.13-12.21-10.23-18.57,3.63,8.15,7.25,16.29,10.88,24.44-6.47-14.8-12.94-29.61-19.42-44.41,3.34,8.31,6.68,16.62,10.02,24.94-4.53-11.8-9.07-23.61-13.6-35.41,3.17,8.4,6.35,16.8,9.52,25.2-2.61-7-4.87-14.1-6.8-21.32-1.97-7.4-3.58-14.87-4.82-22.42,6.64,98.64,13.29,197.28,19.93,295.91,23.38-163.91,46.75-327.81,70.13-491.72,1.37-3.09,2.27-6.31,2.7-9.65,1.03-5.73,1-11.44.95-17.25-.07-8.14-.47-16.08-2.26-24.07-1.62-7.24-3.75-14.39-6.26-21.37-7.38-20.53-17.77-39.94-28.93-58.62-5.88-9.85-11.96-19.53-18.67-28.83-8.19-11.35-16.7-22.47-25.67-33.21-33.14-39.69-71.89-74.4-113.53-104.95-42.22-30.98-87.37-57.84-133.32-82.87-42.96-23.41-86.54-45.65-129.75-68.6s-88.85-47.89-132.39-73.42c-25.46-14.93-50.64-30.29-75.86-45.61-22.96-13.95-46.3-27.19-70.09-39.67-19.42-10.19-39.01-20.05-58.8-29.51s-39.51-18.44-59.24-27.7c3.33,1.6,6.65,3.2,9.98,4.8-10.95-5.3-21.86-10.63-32.51-16.53-8.62-4.77-16.82-9.98-24.82-15.74,43.75,93.86,87.51,187.72,131.26,281.59-29.58-156.31-59.16-312.61-88.74-468.92-1.22,9.46-2.43,18.92-3.65,28.38,2.08-13.14,4.36-26.28,5.54-39.54.5-5.54.25-10.92-.56-16.43-1.26-8.53-3.83-16.77-6.64-24.91-2.41-6.98-5.23-13.73-8.49-20.36-4.96-10.07-11.34-19.54-17.88-28.63-7.88-10.95-16.37-21.5-25.45-31.48-8.34-9.15-16.97-18.05-25.84-26.68-13.15-12.79-26.6-25.33-40.58-37.2-52.86-44.87-113.19-80.24-176.79-107.6-28.5-12.26-57.65-22.96-87.32-32.07-28.38-8.71-57.18-15.72-86.19-21.97-4.5,12.17-2.89,24.16,4.81,35.96,11.94,28.01,24.82,55.58,38.63,82.71,16.53,34.22,33.77,68.09,51.71,101.61,10.84,24.5,24.85,46.91,42.05,67.2,15.06,9.75,30.14,19.52,44.55,30.21,16.31,12.09,31.84,25.35,46.26,39.64,31.26,30.97,57.48,67.09,76.86,106.62,4.92,10.05,9.4,20.35,13.53,30.75,1.96,5.19,3.93,10.38,5.89,15.56,1.9,5.26,3.8,10.53,5.7,15.79,2.78,8.62,5.08,17.47,7.16,26.28,1.9,8.06,3.58,16.2,4.92,24.37,4.47,27.26,4.56,55.21,11.4,82.07,1.54,6.05,3.46,11.95,5.46,17.86,2,5.92,4.16,11.7,6.76,17.38,4.87,10.66,10.92,20.67,17.6,30.29,7.14,10.27,14.91,20.08,22.64,29.9,5.29,6.73,10.53,13.48,15.9,20.14,2.5,4.38,5.77,7.97,9.81,10.79,1.99,1.69,4.09,3.22,6.3,4.61,16.89,11.44,36.37,17.43,55.76,23.12,9.34,2.74,18.66,5.51,27.84,8.75,10.64,3.75,20.94,8.21,31.15,12.99-3.32-1.63-6.63-3.26-9.95-4.89,22,11.09,43.33,23.39,64.86,35.35,10.52,5.84,21.11,11.54,31.65,17.33,16.48,9.04,32.8,18.37,48.97,27.96,35.01,20.76,69.27,42.71,103.26,65.09,35.66,23.48,71.22,47.11,106.26,71.5,34.91,24.3,69.26,49.51,101.86,76.86,11.23,9.42,22.27,19.11,33.01,29.1,13.83,12.87,27.34,26.17,39.69,40.49,19.8,22.96,36.69,48.57,48.33,76.63,11.05,26.64,17.08,54.97,18.58,83.74.65,12.47.5,24.93-.33,37.39-.5,6.94-1.11,13.88-1.85,20.8-.41,7.48-1.25,14.91-2.53,22.29-1.62,9.48-3.99,18.83-6.56,28.09-2.84,10.26-6.08,20.44-8.17,30.89-.97,4.72-1.67,9.48-2.07,14.28-.44,6.37-.51,12.74-.21,19.13.22,7.24.84,14.31,2.49,21.4,4.58,19.77,14.77,37.77,25.76,54.62,13.61,20.86,28.92,40.53,44.42,60.01,5.8,6.9,11.18,14.11,16.14,21.63,3.02,3.99,6.04,7.99,9.06,11.98,11.78,15.26,24.64,29.73,38.07,43.54,19.05,19.6,39.52,37.76,60.52,55.23,12.12,10.08,24.39,19.97,36.56,29.98,4.8,4.12,9.76,8.05,14.86,11.78,5.38,3.91,10.12,8.5,14.21,13.77,7.62,9.28,12.1,7.95,13.43-3.98-1.16-25.75-6.08-50.86-14.76-75.34-12.94-47.33-26.88-94.35-41.84-141.08-6.07-25.25-15.64-48.98-28.7-71.2Z"/>
  <path class="cls-1" d="M1312.22,1547.12c-.54-14.71-5.1-27.55-13.7-38.52,5.74,11.64,11.49,23.29,17.23,34.93-9.88-20.55-19.76-41.1-29.64-61.65,5.32,12.01,10.63,24.01,15.95,36.02-2.73-6.34-5.14-12.8-7.23-19.37,7.45,25.97,14.9,51.94,22.34,77.91-9.95-36.37-19.9-72.73-29.84-109.1,5.22,26.47,10.44,52.95,15.65,79.42-6.09-33.79-12.17-67.59-18.26-101.38,10.59,103.22,21.19,206.44,31.78,309.66-10.91-131.64-21.82-263.29-32.73-394.93-9.67,142.27-19.33,284.54-29,426.81,28.74-164.64,57.48-329.28,86.22-493.92-63.41,88.29-126.83,176.58-190.24,264.87,95.97-89.66,175.17-190.53,237.6-302.62,1.75-2.8,3.29-5.71,4.63-8.73,2.59-5.49,4.06-11.35,4.75-17.38.88-7.8.34-15.68-.71-23.43-1.33-9.81-3.59-19.53-6.69-28.93-3.86-11.69-8.54-23.03-13.81-34.15-6.13-12.94-12.85-25.73-20.37-37.91-6.46-10.47-13.34-20.65-20.53-30.63-5.36-7.29-10.87-14.46-16.54-21.52-5.57-7.24-11.43-14.23-17.58-20.99-18.87-20.9-39.1-40.45-60.64-58.57-12.26-10.32-24.86-20.25-37.87-29.61s-26.78-18.03-40.65-26.33c-53.83-32.23-110.58-59.22-167.34-85.83-51.66-24.22-103.31-48.43-154.09-74.49-27.52-14.13-54.77-28.82-81.75-43.96-28.69-16.1-56.9-32.95-85.15-49.79-25.64-15.28-51.75-29.71-78.5-42.98-22.46-11.14-45.2-21.69-68.04-32.02-15.16-6.86-30.31-13.7-45.05-21.42-6.83-3.58-13.61-7.29-20.08-11.48l-6.7-4.58c-3.91-2.8-7.57-5.91-10.97-9.31,9.42,9.17,18.84,18.33,28.26,27.5l-4.37-4.61c88.08,114.21,176.16,228.41,264.23,342.62-67.34-180.06-134.68-360.12-202.03-540.18-2.64,16.84-5.29,33.67-7.93,50.51,5.04-16.23,10.07-32.47,15.11-48.7,1.04-3.54,1.55-7.14,1.53-10.8.32-7.35.87-14.71.59-22.06-.61-15.94-6.95-30.94-14.13-44.96-5.63-10.99-12.73-21.32-20.02-31.25-8.79-11.97-18.26-23.48-28.38-34.37-9.3-10.01-18.91-19.75-28.83-29.13-5.42-4.96-10.85-9.93-16.27-14.89-9.33-8.95-19.11-17.36-29.34-25.23-6.62-5.61-13.55-10.83-20.77-15.65-7-5.19-14.2-10.08-21.6-14.68-18.18-11.81-36.86-22.96-56.13-32.94-33.26-17.22-67.52-32.2-102.75-44.9-31.81-11.47-64.22-21.18-97.07-29.19C73.77,10.72,42.44,4.91,10.91,0c-2.21,18.28,2.1,35.49,12.94,51.65,27.35,59.26,56.02,117.87,86,175.85,29.25,58.35,59.79,116.01,91.63,172.98,6.69,18.27,18.08,31.88,34.16,40.85-50.21,46.97-67.85,95.13-52.92,144.49.6,2.62,1.79,4.99,3.58,7.1,3.65,5.39,8.54,10.17,12.86,14.98,7.45,8.28,14.7,16.72,21.49,25.56,7.62,9.91,14.88,20.08,22,30.35,20.63,29.79,40.37,60.14,62.33,88.98,6.87,9.1,14.06,17.93,21.58,26.5,7.46,8.97,15.3,17.61,23.5,25.92,8.17,8.53,16.76,16.62,25.76,24.26,8.66,7.91,17.75,15.31,27.26,22.2,18.86,13.52,38.66,25.82,59.63,35.84,7.13,3.25,14.25,6.49,21.38,9.74,10.88,4.74,21.98,8.9,33.28,12.5,11.39,4.07,22.97,7.5,34.75,10.28,5.39.86,10.78,1.72,16.16,2.58,14.68,2.03,29.56,2.34,44.35,1.95,16.29-.44,32.63-2.64,48.74-4.81,9.66-1.3,19.37-2.87,29.1-3.58,7.99-.58,16.1-1.01,24.08,0l7.22,1.11c4.67.93,9.21,2.27,13.63,4.03-4.53-1.97-9.05-3.93-13.58-5.9,4.47,1.88,8.79,4.08,12.93,6.6,2.13,1.38,4.26,2.76,6.39,4.13,6.84,4.6,13.3,10.04,19.48,15.47,7.17,6.31,14.07,12.95,20.91,19.61,8.03,7.82,16.04,15.69,23.87,23.71,19,19.45,37.28,39.61,54.89,60.33,8.42,9.9,16.71,19.9,24.91,29.98,5.21,6.34,10.32,12.76,15.32,19.26,7.18,8.97,14.03,18.18,20.55,27.64-7.34-10.98-14.69-21.95-22.03-32.93,10.32,15.5,20.65,31,30.97,46.5-7.14-11.1-14.28-22.21-21.43-33.31,14.43,24.34,28.87,48.68,43.3,73.02-6.43-11.51-12.86-23.03-19.29-34.54,4.4,8.01,8.44,16.19,12.14,24.54,3.39,7.65,6.4,15.43,9.03,23.37-8.29-25.77-16.59-51.54-24.88-77.31,10.29,33.06,20.59,66.12,30.88,99.18-6.72-26.19-13.45-52.39-20.17-78.58,7.77,32.87,15.54,65.73,23.31,98.6-16.96-102.69-33.93-205.37-50.89-308.06-64.77,176.9-44.92,306.8,59.54,389.68,4.1,3.5,7.85,7.33,11.25,11.49,8.4,9.68,14.81,20.47,19.23,32.53,4.31,11.75,6.62,24.37,8.21,36.73,1.98,15.38,2.69,30.9,3.64,46.37,1.56,25.48,3.13,51.07,7.36,76.29,3.68,21.92,8.56,43.56,15.45,64.72,3.65,11.43,7.88,22.63,12.71,33.59,4.62,11.59,9.84,22.91,15.64,33.97,7.84,15.08,16.58,29.62,26.21,43.63,7.19,10.66,14.96,20.86,23.33,30.61,8.04,10.12,16.62,19.76,25.73,28.94,12.26,12.56,25.07,24.54,38.42,35.93,6.53,5.43,13.06,10.87,19.6,16.3,12.98,11.94,26.47,23.27,40.47,33.99,37.02,28.48,77.16,52.41,117.88,75.16,16.67,9.31,33.42,18.48,49.96,28.03,4.05,2.35,8.1,4.71,12.14,7.06,6.91,4.14,13.87,8.17,20.9,12.09,4.24,3.28,8.92,4.56,14.06,3.83.66-2.54,1.32-5.09,1.98-7.63,6.08-24.46,2.87-48.79-9.61-73-18.32-61.94-36.68-123.87-55.05-185.8-12.35-39.47-25.7-78.59-40.05-117.38-4.5-17.93-11.83-34.42-21.97-49.48-2.33-7.3-7.19-11.8-14.59-13.49-6.41,9.08-7.16,19.18-2.24,30.31Z"/>
  <path class="cls-1" d="M1359.04,1970.39c-4.71-18.55-9.43-37.11-14.14-55.66-1.4-10.63-5.22-20.05-11.46-28.28-1.77-3.64-4.31-6.6-7.63-8.87-3.37-2.95-6.78-5.85-10.22-8.72,2.63,2.27,5.27,4.53,7.9,6.8l-6.31-7.6c-3.17-4.15-6.14-8.44-8.91-12.86-4.81-7.4-9.31-15.06-13.12-23.03-3.15-6.58-6.02-13.28-8.62-20.1-4.06-10.65-6.79-21.58-9.38-32.65,1.46,7.71,2.93,15.42,4.39,23.13-2.16-11.54-4.31-23.08-6.47-34.61l3.86,23.21c-2.1-15.66-4.2-31.32-6.3-46.98l2.73,23.36c-.82-8.17-1.23-16.36-1.23-24.58,0-8.49.41-16.95,1.24-25.39-15.51,75.61-31.03,151.22-46.54,226.83,46.7-118.3,93.39-236.61,140.09-354.91-3.68,7.26-7.37,14.52-11.05,21.78,5.67-9.74,11.1-19.64,15.56-30,2.3-5.33,3.7-11.07,4.03-16.89.36-6.25-.04-12.54-.51-18.77-.63-8.23-2.1-16.12-4.24-24.07-5.94-22.01-15.9-42.79-26.92-62.66-6.82-12.3-14.06-24.23-22.19-35.72-6.41-9.05-13.03-17.94-19.89-26.65-17.64-22.4-37.49-43.25-58.47-62.54-21.68-19.94-44.86-38.42-69-55.3-46.43-32.46-95.9-60.01-146.18-86-49.36-25.52-99.13-50.26-148.19-76.36-52.28-27.81-103.87-56.86-154.66-87.3-14.03-8.41-27.91-17.07-42.04-25.31-10.44-6.09-20.97-12.04-31.57-17.86-23.51-12.9-47.55-24.88-71.78-36.37-19.78-9.38-39.79-18.24-59.59-27.59-15.07-7.11-29.91-14.55-44.3-22.97l8.85,5.59c-5.25-3.34-10.51-6.68-15.76-10.02l8.84,5.62c-5.78-4.06-11.73-8.16-16.66-13.28l-4.13-4.53c-2.39-2.86-4.41-5.95-6.06-9.29,3.25,7.24,6.5,14.48,9.75,21.72-4.3-10.46-8.6-20.92-12.89-31.38,16.63,84.11,33.26,168.21,49.9,252.32-10.92-102.23-21.83-204.47-32.75-306.7-2.27,46.31-4.54,92.62-6.81,138.93,2.98-26.88,5.96-53.77,8.94-80.65-10.47,60.38-20.94,120.77-31.42,181.15,13.22-108.71,37.12-214.43,71.71-317.17.89-2.32,1.58-4.7,2.05-7.15,2.16-8.93,4.15-17.89,5.96-26.9l1.16-7.64c.67-7.13.03-14.24-1.32-21.25-1.58-8.18-4.14-16.46-7.12-24.22-2.79-7.26-6.05-14.26-9.69-21.13-5.54-10.43-12.45-20.21-19.53-29.63-8.53-11.33-17.72-22.11-27.39-32.47-11.47-12.28-23.67-23.85-35.85-35.42-53.66-50.95-117.59-90.47-185.13-120.27-32.18-14.2-65.41-26.39-99.18-36.27-12.27-3.59-24.59-6.95-36.98-10.11-16.8-4.28-33.76-7.84-50.73-11.34-6.41,10.16-6.94,21.23-1.6,33.21,9.8,37.81,21,75.2,33.61,112.17,11.82,37.23,25.03,73.97,39.61,110.2,2.82,12.8,9.83,21.39,21.02,25.76,11.84,4.7,23.67,9.44,35.4,14.44,15.77,6.73,31.11,14.28,46.04,22.7,13.68,7.72,26.86,16.13,39.59,25.34,6.62,4.66,13.05,9.58,19.27,14.77,8.49,6.99,16.65,14.34,24.48,22.07-2.41-2.48-4.82-4.96-7.24-7.44,6.26,6.47,12.52,12.94,18.78,19.42-2.34-2.55-4.67-5.11-7.01-7.66,5.99,6.74,11.99,13.48,17.98,20.22l-6.77-7.88c5.7,6.99,11.39,13.99,17.09,20.98l-6.52-8.09c6.78,8.72,13.11,17.76,18.97,27.12,2.8,4.68,5.6,9.35,8.4,14.03,7.23,12.37,13.81,25.25,19.16,38.55,4.28,10.65,7.88,21.7,10.09,32.99,1.81,9.27,2.79,18.83,3.09,28.27.52,16.32-.49,32.66.23,48.97.3,6.81.81,13.59,1.6,20.36,1.74,14.8,4.87,29.37,8.65,43.77,2.55,9.72,5.37,19.36,8.03,29.05,1.47,5.27,2.88,10.56,4.22,15.86,3.87,14.43,10.38,27.22,19.53,38.39,4.62,5.94,9.39,11.81,14.52,17.32,5.9,6.34,12.7,11.88,19.53,17.18,13.2,10.23,27.72,18.78,42.17,27.1,14.31,8.23,28.77,16.21,43.25,24.14,16.83,9.22,33.73,18.34,50.84,27.04,20.8,10.58,41.85,20.64,62.52,31.5,25.77,13.54,51.05,27.94,76,42.92,16.08,9.65,31.91,19.7,47.78,29.69,16.05,10.11,32.15,20.14,48.27,30.16,56.28,34.96,113.1,69.09,168.84,104.92,12.56,8.07,25.09,16.2,37.5,24.51,12.29,8.22,24.61,16.44,36.56,25.15,9.71,7.08,19.22,14.38,28.43,22.09,5.4,4.41,10.64,9.01,15.73,13.78,6.59,6.12,12.92,12.49,18.99,19.11-2.3-2.59-4.59-5.18-6.89-7.78,5.17,5.87,10.34,11.75,15.52,17.62-2.24-2.64-4.48-5.28-6.72-7.93,4.91,5.99,9.83,11.97,14.74,17.96-2.18-2.69-4.36-5.39-6.54-8.08,5.18,6.52,10.04,13.26,14.58,20.23,4.38,6.72,8.42,13.64,12.12,20.75,7.04,13.55,12.8,27.77,17.08,42.42,4.07,13.89,6.73,28.12,8.17,42.52,1.43,14.35,2.45,28.74.21,43.07-1.73,11.04-5.16,21.7-9.55,31.95-2.69,6.28-5.65,12.44-8.38,18.71-3.33,7.64-6.29,15.43-8.21,23.56s-2.91,17.13-3.03,25.82c-.3,21.35,3.64,42.78,8.66,63.44,2.01,8.47,4.41,16.84,7.19,25.09,2.61,9.18,5.52,18.26,8.76,27.24,7.06,19.72,15.53,38.9,25.34,57.41,18.26,34.41,41.09,66.17,66.94,95.27,11.47,12.92,23.57,25.22,35.73,37.49,5.38,5.41,10.75,10.84,16.11,16.26,6.52,5.97,11.27,13.16,14.26,21.59-2.6-7.61-5.19-15.22-7.79-22.83,3.51,10.77,7.02,21.54,10.53,32.31.38,12.29,5.46,21.2,15.24,26.74,8.17-7.71,10.97-17.58,8.41-29.6-1.78-35.66-5.03-71.2-9.74-106.61-3.89-35.51-9.22-70.79-16.01-105.85Z"/>
  <path class="cls-1" d="M1345.53,1700.22c-1.12,4.37-2.24,8.75-3.36,13.12,1.38-4.06,2.75-8.12,4.13-12.18-1.4,1.69-2.8,3.38-4.2,5.07l9.51,8.97c-5.26-4.97-10.52-9.93-15.78-14.9,3.18,3.05,6.36,6.11,9.54,9.16-4.39-5.04-8.4-10.37-12.05-15.97-2.88-4.3-5.51-8.74-7.9-13.33-2.59-4.57-4.94-9.27-7.04-14.1-2.92-6.55-5.51-13.24-7.76-20.05,3.38,10.96,6.76,21.93,10.15,32.89-6.06-21.74-12.11-43.48-18.17-65.22,2.6,11.19,5.2,22.38,7.8,33.57-3.14-14.96-6.29-29.92-9.43-44.88,2.3,11.26,4.59,22.52,6.89,33.78-2.65-15.11-5.31-30.21-7.96-45.32,1.97,11.32,3.94,22.65,5.91,33.97-1.56-11.78-2.91-23.49-3-35.4.03-4.07.07-8.14.1-12.21.27-8.36.91-16.69,1.93-24.99-8.96,56.44-17.93,112.89-26.89,169.33,11.11-62.07,22.23-124.14,33.34-186.21-13.39,55.41-26.78,110.82-40.17,166.23,15.96-60.21,31.92-120.43,47.88-180.64-37.27,107.47-74.54,214.93-111.81,322.4,65.04-141.24,130.08-282.47,195.12-423.71,1.49-5.41,2.66-10.89,3.52-16.43,1.15-6.91,1.16-14.03.22-20.98-2.45-18.08-8.8-35.26-16.4-51.76-5.49-11.91-11.62-23.55-18.36-34.81-6.12-10.21-12.45-20.39-19.26-30.16-15.09-21.64-32.2-42.01-50.39-61.11-39.1-41.04-84.23-75.68-131.98-106.05-46.7-29.7-95.74-55.55-144.87-80.93-46.03-23.77-92.13-47.4-137.63-72.17-51.97-28.29-103.18-57.95-153.67-88.79-11.09-6.77-22.12-13.64-33.29-20.29-12.79-7.62-25.83-14.82-38.95-21.86-21-11.26-42.33-21.88-63.84-32.14-19.62-9.37-39.49-18.24-59.12-27.59-15.03-7.16-29.81-14.66-44.04-23.31,3.69,2.43,7.38,4.86,11.07,7.29l-6.78-4.54c53.35,112.4,106.7,224.81,160.05,337.21-50.65-146.71-101.31-293.42-151.96-440.13,1.88,34.95,3.76,69.91,5.64,104.86-.08-29.45-.17-58.89-.25-88.34-4,57.01-8,114.01-11.99,171.02,6.22-64.67,12.44-129.35,18.67-194.02-10.21,56.16-20.43,112.32-30.64,168.48,12.19-60.72,24.38-121.45,36.57-182.17-14.16,55.23-28.32,110.46-42.49,165.69,16.06-59.64,32.12-119.28,48.17-178.92,6.96-18.76,12.14-37.93,15.54-57.5.61-2.5.9-5.05.87-7.62.38-4.13.25-8.25-.38-12.36-.61-7.44-1.14-14.98-2.8-22.28-2.01-8.87-5.51-17.3-9.5-25.44-9.72-19.84-23.06-37.77-37.43-54.48-10.15-11.81-21.05-22.95-32.27-33.76-4.81-4.77-9.75-9.39-14.83-13.86-8.52-7.77-17.1-15.48-25.74-23.11-12.42-10.44-25.23-20.4-38.35-29.95-16.32-11.88-33.48-22.68-50.89-32.89-30.11-17.67-61.45-33.01-93.6-46.6-16.6-7.01-33.53-13.29-50.55-19.18-16-5.54-32.08-10.83-48.37-15.44-12.1-3.42-24.26-6.64-36.47-9.66-16.63-4.11-33.41-7.52-50.21-10.84-4.3,15.63-2.15,30.95,6.45,45.97,13.65,37.43,28.27,74.49,43.85,111.16,18.72,46.1,38.16,91.9,58.34,137.39,12.23,32.6,27.85,63.41,46.85,92.42,9.55,11.94,19.05,23.92,27.78,36.48,9.38,13.52,18.05,27.59,25.76,42.13,7,13.2,13.44,26.69,19.3,40.43,9.24,21.66,16.86,43.86,24.5,66.13-1.43-4.21-2.86-8.43-4.29-12.64,2.56,7.99,5.13,15.98,7.69,23.97,1.29,3.92,2.58,7.85,3.87,11.77,2.39,7.87,4.48,15.84,6.8,23.73,3.63,12.34,7.2,24.69,10.9,37.01,4.44,14.83,9.29,29.55,15.13,43.89,6.04,14.83,13.08,29.3,21.16,43.12,5.62,9.63,11.79,18.91,18.35,27.91,5.45,7.79,11.5,15.1,18.14,21.94,5.92,7.72,12.38,14.93,19.37,21.66,14.78,14.77,30.61,28.41,47.12,41.19,6.68,5.3,13.55,10.34,20.6,15.13,3.53,1.99,7.06,3.98,10.59,5.97,6.81,3.61,13.85,6.9,20.98,9.83,14.43,5.94,29.43,10.36,44.56,14.15,23.17,5.8,46.63,10.44,68.8,19.59,25.42,10.49,48.55,25.82,71.73,40.42,12.96,8.16,26.04,16.14,39.03,24.26,17.61,11.02,35.02,22.37,52.24,33.98,43.14,29.07,85.03,59.89,125.89,92.07-3.45-2.78-6.9-5.56-10.36-8.35,7.87,6.34,15.73,12.69,23.6,19.03-3.43-2.81-6.86-5.62-10.29-8.43,7.68,6.33,15.36,12.66,23.04,18.98-3.41-2.84-6.81-5.68-10.22-8.51,7.49,6.32,14.97,12.64,22.46,18.96-3.38-2.87-6.76-5.74-10.14-8.61,7.29,6.31,14.58,12.62,21.87,18.93-3.35-2.9-6.7-5.81-10.06-8.71,27.14,24.26,53.38,49.55,76.16,78.03,9.32,11.65,18.1,23.8,26.05,36.43,7.74,12.29,14.64,25.08,20.08,38.57,7.5,18.6,11.9,38.11,13.28,58.11.55,7.96.68,15.93.72,23.91.06,12.95.17,25.9.25,38.85l.02-13.24c-.19,8.44-.23,16.89-.11,25.33.37,3.69.62,7.4.75,11.1.32,6.97.34,13.94.24,20.91-.23,16.98-.64,33.91.57,50.87,1.84,25.84,6.94,51.38,15.25,75.94,9.52,28.14,23.11,54.74,39.27,79.62,8.3,12.77,17.26,25.01,26.83,36.86,5.06,6.4,10.31,12.63,15.76,18.71,7.65,8.57,15.42,17.03,23.3,25.38,4.39,5.19,8.78,10.38,13.17,15.56,8.62,9.81,17.55,19.34,26.78,28.57,12.99,12.88,26.4,25.31,40.3,37.21,24.34,20.85,49.99,40.06,75.85,58.97,10.98,8.03,21.98,16.01,32.92,24.09,6.25,4.68,12.53,9.32,18.85,13.92,3.76,4.73,8.17,6.02,13.25,3.86,1.35-4.14,2.7-8.29,4.06-12.43,2.34-14.47,2.08-28.98-.78-43.52-1.54-31.88-6.87-63.19-15.98-93.94-13.76-59.42-28.55-118.58-44.36-177.49-6.43-31.42-16.46-61.56-30.09-90.41-7.86-12.21-12.39-11.08-13.59,3.4Z"/>
  <path class="cls-1" d="M1340.86,2239.14c-3.66-54-10.29-107.56-19.9-160.68-3.56-20.47-7.53-40.86-11.92-61.18-2.72-9.18-6.17-18.05-10.36-26.62-2.68-5.83-5.4-11.63-8.18-17.41-4.46-10.05-8.6-20.27-11.41-30.92l-2.56-10.55c-1.52-7.21-2.59-14.49-3.22-21.83.46,6.65.91,13.3,1.37,19.96-.67-10.42-1.34-20.85-2.01-31.27.36,6.65.73,13.3,1.09,19.96-.08-3.86-.17-7.71-.25-11.57-.48,9.43-.96,18.86-1.44,28.29,1-17.37,2-34.74,3-52.11-.77,9.41-1.55,18.83-2.32,28.24l1.37-12.23c-1.45,9.34-2.9,18.69-4.36,28.03l8.61-51.78c-1.81,9.35-3.62,18.7-5.42,28.06,2.78-13.24,5.55-26.49,8.33-39.73-2,9.36-4.01,18.72-6.01,28.09.95-3.87,1.9-7.75,2.85-11.62-2.14,6.45-4.29,12.89-6.43,19.34,4.32-7.9,8.75-15.71,13.87-23.13,3.81-5.52,8.04-10.54,12.65-15.4-2.82,2.61-5.63,5.23-8.45,7.84l12.08-11.09c-2.9,2.57-5.81,5.14-8.71,7.72,3.6-2.95,7.08-5.51,11.24-7.64s8.16-3.61,12.33-5.14c4.47-1.64,9.01-3.16,13.32-5.19l4.67-2.32c7.15-4.65,13.67-10.07,19.56-16.25,9.97-7.9,17.53-17.79,22.69-29.68,8.91-15.36,17.12-31.08,24.63-47.16,6.6-12.63,12.26-25.68,16.97-39.15l1.14-8.34c3.71-31.53-6.07-62.97-19.76-91.05-4.31-8.87-9.07-17.48-14.3-25.82-4.97-8.65-10.42-17-16.34-25.04-11.81-16.47-24.3-32.45-37.93-47.46-25.63-28.22-53.63-53.94-83.81-77.23-13.72-10.59-27.8-20.66-42.2-30.31-16.86-11.3-34.36-21.65-51.99-31.7-34.15-19.46-69.47-36.89-104.9-53.85-30.96-14.82-62.01-29.45-93.15-43.89-30.2-14-60.28-28.24-90.14-42.96-33.45-16.5-66.54-33.76-99.23-51.72-17.15-9.42-34.22-19.03-51.14-28.85-17.17-9.96-34.13-20.29-51.36-30.17-27.07-15.51-54.65-29.98-82.84-43.35-22.99-10.91-46.3-21.09-69.56-31.42-10.38-4.61-20.76-9.24-31-14.16-8.62-4.14-17.33-8.42-25.54-13.34-6.74-4.05-13.56-8.27-19.4-13.57l-4.96-4.75c-2.91-3.02-5.37-6.37-7.4-10.04l5.77,9.47c-1.96-3.37-3.29-6.98-4.01-10.81,1.17,6.76,2.35,13.52,3.52,20.27-.28-1.92-.56-3.85-.84-5.77.64,9.67,1.28,19.33,1.92,29l-.28-6.06-2.11,49.24c1.16-10.92,2.31-21.84,3.47-32.75-.89,6.69-1.78,13.38-2.67,20.07.68-3.26,1.75-6.38,3.2-9.36,1.29-3.25,2.9-6.33,4.84-9.26l-5.54,9.26c2.59-4.33,5.44-8.49,8.55-12.47,3.3-4.24,6.71-8.39,10.21-12.47,3.6-4.18,7.14-8.41,10.63-12.68,4.38-5.82,8.45-11.86,12.21-18.1,4.15-7.27,6.88-14.98,10.47-22.5,3.89-8.16,8.74-15.69,13.79-23.17,4.45-6.6,9.02-13.15,12.73-20.21,5.32-10.14,10.2-20.53,14.62-31.09,7.69-19.19,14.38-38.73,20.08-58.61,2.63-9.37,4.81-18.86,6.54-28.45.95-5.56,1.18-11.16.69-16.78-.7-7.4-2.07-14.68-4.13-21.83-1.25-7.79-3.77-15.16-7.54-22.11-4.6-9.17-9.95-17.89-16.04-26.16-15.58-21.64-34.63-40.83-54.1-58.93-8.99-8.17-18.05-16.25-27.2-24.24-9.95-9.03-20.31-17.58-31.07-25.65-28.39-21.66-58.79-40.54-90.33-57.26-25.14-13.33-51.04-25.53-77.4-36.25-22.78-9.27-45.81-17.99-69.25-25.43-51.38-16.31-104.3-26.82-157.56-34.62-6.48,2.74-9.56,7.83-9.24,15.28.61,16.8,2.67,33.43,6.19,49.9,2.72,16.61,6.85,32.86,12.4,48.73,2.41,7.06,7.13,10.68,14.17,10.87,27.87,3.97,55.68,8.64,83.03,15.36,12.66,3.11,25.26,6.5,37.77,10.18,21.13,6.23,41.58,14.12,62.07,22.18l-7.08-3.02c9.53,4.09,19.06,8.17,28.59,12.26-2.34-1.04-4.69-2.08-7.03-3.13l28.62,13.24-6.98-3.24c14.63,7.05,28.99,14.63,43.07,22.74,14.39,8.29,28.39,17.17,42.02,26.65,13.95,9.71,27.39,20.07,40.33,31.09,13.11,11.17,25.66,22.93,37.65,35.28,19.36,19.41,38.39,39.57,53.82,62.33,6.21,8.91,11.55,18.32,16.01,28.22,3.5,7.77,5.93,15.86,7.27,24.27-.7-3.79-1.41-7.59-2.11-11.38.98,4.91,1.25,9.84.83,14.78.01,4.21-.51,8.37-1.56,12.46,1.47-7.17,2.93-14.35,4.4-21.52-.57,2.37-1.15,4.74-1.72,7.11,3.03-9.92,6.07-19.83,9.1-29.75-1.51,4.25-3.02,8.5-4.53,12.75,6.7-16.16,13.41-32.32,20.11-48.48-1.96,4.21-4.32,8.18-7.1,11.9-2.96,3.96-6.13,7.74-9.51,11.34l7.66-8.21c-9.16,9.33-18.66,18.34-26.94,28.48-5.98,7.32-11.82,14.88-16.89,22.87-4.68,7.38-9.35,14.77-14.07,22.13l6.26-8.77c-6.5,6.51-13.14,12.79-19.87,19.07-6.35,5.92-13.02,11.87-18.76,18.4-3.3,4.08-6.6,8.17-9.89,12.25-3.29,5.08-6.23,10.35-8.83,15.82l-2.68,6.38c-1.76,5.37-2.63,10.89-2.63,16.57-1.54,12.97-1.92,26-1.14,39.09l.3,6.59c.24,16.58,1.93,32.99,5.08,49.24l2.24,6.5c1.81,3.77,3.82,7.42,6.03,10.97,2.01,3.76,4.36,7.29,7.05,10.6,4.77,5.89,10.78,11.24,16.88,15.72,13.52,9.91,28.44,17.66,43.51,24.89,19.08,9.16,38.52,17.54,57.85,26.15,26.74,11.91,53.31,24.27,79.19,37.97,29.75,15.74,58.51,33.12,87.59,50.04,58.66,34.13,118.58,65.97,179.59,95.69,28.51,13.89,57.23,27.34,85.85,41.01,32.68,15.61,65.37,31.36,97.41,48.23,30.48,16.05,60.44,33.03,89.02,52.29,30.21,20.36,58.39,43.27,84.45,68.72,7.25,7.07,14.21,14.4,20.88,22,6.88,7.43,13.45,15.12,19.73,23.07,6.37,7.84,12.39,15.94,18.07,24.29,5.89,8.14,11.41,16.54,16.54,25.18,3.27,5.75,6.54,11.5,9.8,17.24,6.26,11.72,11.86,23.74,16.82,36.07,2.04,5.99,4.09,11.98,6.13,17.97,3.19,10.65,5.11,21.53,5.75,32.62-.3-4.2-.6-8.41-.91-12.61.71,8.41.22,16.74-1.47,24.99,2.36-7.9,4.71-15.81,7.07-23.71-5.61,15.67-11.23,31.35-16.84,47.02,8.24-18.37,16.47-36.74,24.71-55.11-6.38,12.48-12.75,24.96-19.13,37.44,11.27-20.76,22.55-41.53,33.82-62.29-2.11,3.31-4.23,6.62-6.34,9.93,4.85-6.68,9.7-13.36,14.55-20.04-2.42,2.97-5.23,5.49-8.44,7.58l10.3-7.46c-3.56,2.12-7.08,4.11-10.91,5.73-4.2,1.78-8.58,3.21-12.91,4.64-11.13,3.65-22.32,6.98-33.05,11.72-10.35,4.57-20.06,10.32-29.02,17.23-3.75,2.71-7.2,5.75-10.37,9.14-3.68,3.12-7.1,6.5-10.24,10.15-2.42,2.54-4.72,5.2-6.89,7.97-6.42,7.23-11.32,15.49-14.7,24.77-2,6.45-4,12.9-6,19.34-2.19,8.19-4.39,16.38-6.58,24.58-1.62,9.35-3.24,18.69-4.87,28.04-1.14,8.44-2.28,16.88-3.43,25.31-.77,9.41-1.55,18.83-2.32,28.24.04,8.28.07,16.56.11,24.85.26,10.7.67,21.42,2.14,32.03,2.43,17.51,7.05,34.66,13.56,51.08,6.55,16.53,15.15,32.07,23.74,47.61-1.73-3.18-3.47-6.37-5.2-9.55,4.82,7.85,8.56,16.18,11.21,24.99,7.64,19.33,12.67,39.42,15.09,60.27-1.18-6.67-2.36-13.34-3.55-20.01,4.39,31.13,8.79,62.26,13.18,93.39-.01,4.12,1.27,7.75,3.86,10.88,3.76,2.01,7.79,2.74,12.07,2.18,4.32.01,8.22-1.22,11.7-3.69,2.17-3.44,2.98-7.2,2.45-11.28Z"/>
  <path class="cls-1" d="M1319.14,2152.28c-2.89-66.94-11.27-133.06-25.14-198.37-1.82-5.72-3.64-11.43-5.45-17.15-2.08-7.93-6.2-14.44-12.37-19.51-3.11-4.04-5.94-8.27-8.48-12.69-5.57-9.18-10.46-18.66-14.63-28.55-2.24-5.06-4.2-10.22-5.9-15.49-2.39-7.2-4.38-14.51-5.99-21.93,1.17,5.62,2.33,11.25,3.5,16.87-1.89-9.44-3.77-18.87-5.66-28.31,1.05,5.63,2.11,11.26,3.16,16.89-1.5-7.83-2.57-15.73-3.23-23.68-.56-6.13-.8-12.27-.71-18.42-.13-6.28.07-12.56.6-18.82.66-8.62,1.75-17.18,3.29-25.69-2.22,11.03-4.44,22.05-6.66,33.08,3.11-15.37,6.23-30.74,9.34-46.1-6.91,26.35-13.83,52.7-20.74,79.04,5.65-18.52,11.31-37.03,16.96-55.55-10.16,30.31-20.31,60.62-30.47,90.94,12.91-35.95,25.81-71.9,38.72-107.86-11.8,29.73-23.59,59.45-35.39,89.18,7.24-17.32,14.49-34.65,21.73-51.97-6.55,14.61-13.11,29.23-19.66,43.84,7.74-16.95,15.48-33.91,23.22-50.86-12.4,24.33-24.8,48.66-37.2,72.99,46.35-65.69,92.7-131.38,139.05-197.07-17.24,22.87-34.48,45.75-51.72,68.62,12.04-14.46,23.72-29.2,35.04-44.23,8.6-10.97,16.54-22.38,23.82-34.23,3.32-7.4,6.47-14.88,9.43-22.43,1.48-4.69,2.32-9.5,2.52-14.42.63-11.56-1.61-23.04-4.56-34.15-3.62-13.61-8.69-26.67-14.57-39.46-16.57-36.06-38.78-69.36-64.61-99.45-27.73-32.3-58.94-61.24-92.88-86.91-74.41-56.29-159.28-95.49-242.89-135.83-37.61-18.15-75.12-36.52-112.21-55.73-44.66-23.14-88.59-47.58-132.05-72.88l7.78,4.58c-24.88-14.71-49.52-29.86-74.74-43.99-24.35-13.64-49.21-26.41-74.44-38.36-18.94-8.98-38.06-17.55-57.19-26.13-18.09-8.12-36.02-16.43-53.51-25.77l7.93,4.42c-10.21-5.84-20.32-11.81-29.09-19.73-3.11-2.81-5.94-5.77-8.47-9.11-1.24-1.45-2.29-3.02-3.15-4.71-1.47-2.27-2.62-4.7-3.46-7.29,2.15,5.54,4.31,11.07,6.46,16.61-1.36-3.23-2.28-6.58-2.77-10.06,1.33,11.71,2.65,23.41,3.98,35.12-1.39-15.25-2.79-30.5-4.18-45.75.79,28.33,1.57,56.66,2.36,85-.07-32.09-.15-64.18-.22-96.27-.91,28.11-1.82,56.22-2.73,84.33,1.58-20.59,3.16-41.19,4.74-61.78l-12.87,97.57c5.58-36.86,11.16-73.72,16.75-110.57-2.8,16.05-5.59,32.1-8.39,48.15,3.63-18.3,7.26-36.6,10.89-54.9-3.2,15.92-6.4,31.84-9.6,47.76.57-2.43,1.14-4.86,1.71-7.29-4.07,15.67-8.14,31.34-12.22,47.02,5.76-21.81,11.48-43.63,17.15-65.46-4.52,15.42-9.04,30.85-13.55,46.27,6.7-21.78,13.39-43.56,20.09-65.34-4.94,15.22-9.89,30.43-14.83,45.65,16.11-43.06,32.23-86.13,48.34-129.19-12.47,29.51-24.95,59.02-37.42,88.54,15.97-36.27,32.2-72.43,48.68-108.47-6.68,14.65-13.35,29.29-20.03,43.94,10.83-21.71,20.64-43.85,29.44-66.43,2.62-6.39,5.18-12.79,7.69-19.22,3.47-8.85,4.78-18.26,6.15-27.63l1.07-7.74c.37-4.26.21-8.49-.47-12.69-.98-8.23-3.11-16.37-6.26-24.05-7.08-17.3-17.21-33.15-28.3-48.13-18.86-25.47-41.52-47.42-64.59-69.03-14.62-13.69-29.93-26.75-46.04-38.66-13.14-9.72-26.61-18.96-40.36-27.78-17.06-10.93-34.87-20.75-52.9-29.98-17.57-9-35.46-17.35-53.69-24.94-33.69-14.02-68.47-25.86-103.75-35.21-30.04-7.96-60.39-14.3-90.96-19.81-7.06,6.63-9.05,15.02-5.97,25.18,4.56,28.57,10.55,56.85,17.98,84.82,6.63,28.18,14.66,55.94,24.11,83.29,2.07,10.41,7.78,16.88,17.13,19.4,19.6,3.99,39.22,8.05,58.52,13.35,16.73,4.59,33.28,9.76,49.54,15.83,17.32,6.46,34.4,13.86,50.9,22.2,11.46,5.78,22.65,12.03,33.59,18.75,11.12,6.84,21.89,14.18,32.32,22.03-2.31-1.84-4.63-3.68-6.94-5.51,7.44,5.91,14.88,11.82,22.32,17.74l-6.79-5.69c7.16,6.22,14.32,12.44,21.48,18.66l-6.63-5.87c9.54,8.67,18.59,17.83,27.14,27.48,4.06,4.81,8.12,9.62,12.18,14.43,11.98,14.62,23.07,30.15,32.39,46.6,3.45,5.77,6.5,11.75,9.13,17.94,2.37,5.28,4.25,10.72,5.62,16.33,1.51,4.87,2.56,9.84,3.15,14.91.75,5.82.98,11.66.7,17.52.7-5.67,1.39-11.34,2.09-17.01-3.29,15.64-6.57,31.28-9.86,46.91-5.49,23.83-10.2,47.8-14.14,71.92-2.81,13.6-4.89,27.3-6.24,41.11-2.62,11.37-2.73,22.77-.33,34.19,1.05,5.61,2.36,11.2,4.22,16.6,4.15,12.01,10.64,23.2,18.42,33.23,15.95,20.58,37.25,36.67,59.49,49.92,28.5,16.99,58.36,31.34,88.58,44.97,21.28,9.6,42.53,19.24,63.36,29.79,25.11,12.71,49.66,26.39,73.98,40.53l-7.79-4.57c40.78,24.3,81.45,48.75,122.88,71.94,37.64,21.07,75.74,41.3,114.1,61.02,36.59,18.81,73.44,37.1,109.96,56.03,19.9,10.31,39.62,20.95,58.71,32.71,9.32,5.72,18.47,11.71,27.44,17.97,8.77,6.12,17.32,12.54,25.63,19.27-2.27-1.89-4.53-3.79-6.8-5.68,6.28,5.27,12.55,10.55,18.83,15.82-2.23-1.93-4.47-3.87-6.7-5.8,6.05,5.42,12.1,10.85,18.15,16.27-2.2-1.98-4.39-3.95-6.59-5.93,7.26,7.06,14.52,14.09,21.3,21.62,6.56,7.28,12.84,14.89,18.71,22.75,12.59,16.86,23.4,35.05,32.02,54.24,7.3,16.24,12.69,33.06,16.88,50.35,1.29,4.37,2.16,8.82,2.62,13.35.81,4.05,1.21,8.14,1.21,12.26.37,3.71.36,7.43-.04,11.13-.1,4.96-.74,9.87-1.89,14.72,1.48-5.73,2.97-11.45,4.45-17.18-2.26,8.51-4.52,17.03-6.79,25.54,1.66-5.69,3.32-11.39,4.99-17.08-2.63,8.16-5.26,16.31-7.89,24.47,1.83-5.66,3.66-11.31,5.49-16.97-1.21,3.34-2.69,6.54-4.44,9.61-1.45,2.89-3.1,5.66-4.96,8.31,6.62-9.89,13.24-19.78,19.86-29.67-10.14,14.51-20.29,29.02-30.43,43.53,17.3-22.93,34.61-45.86,51.91-68.79l-3.7,4.46c18.87-21.55,37.75-43.09,56.62-64.64-2.93,3.01-6.11,5.73-9.55,8.14,4.78-3.42,9.57-6.84,14.35-10.27-17.54,11.01-36.88,18.91-53.54,31.37l-6.86,5.47c-3.88,4.15-7.77,8.29-11.65,12.44-5.72,9.74-11.43,19.49-17.15,29.23-7.39,14.29-14.78,28.59-22.17,42.88-6.92,14.53-13.83,29.06-20.75,43.59-4.3,10.45-8.61,20.89-12.91,31.34-.95,5.6-1.91,11.2-2.86,16.8-2.44,26.29-2.91,52.55-1.38,78.79-.09,7.8,1.12,15.42,3.64,22.87,1.3,7.24,3.06,14.37,5.26,21.38,2.7,9.26,5.77,18.37,9.24,27.38,6.71,17.46,14.78,34.3,24.13,50.5,8.76,15.18,18.59,29.65,29.15,43.63,4.82,6.39,9.74,12.7,14.77,18.92,2.43,2.87,4.73,5.85,6.9,8.92,4.91,5.9,8.25,12.69,10.01,20.38-1.82-5.72-3.64-11.43-5.45-17.15,7.15,34.58,13.83,69.25,20.03,104.01,1.32,7.33,5.44,11.62,12.36,12.86,5.17-.87,8.23-3.75,9.16-8.63,4.21-7.85,5.52-16.44,3.92-25.77.37-19.67-.32-39.29-2.06-58.88Z"/>
  <path class="cls-1" d="M1386.99,1667.29c-2.25-7.57-4.51-15.15-6.76-22.72,3.64,2.27,7.27,4.54,10.91,6.81-3.46-2.95-6.52-6.24-9.19-9.9-5.45-6.56-10.23-13.61-14.33-21.15,5.92,9.64,11.84,19.27,17.75,28.91-7.55-12.71-15.11-25.42-22.66-38.13,5.78,9.74,11.57,19.49,17.35,29.23l-4.92-9.22c41.27,105.19,82.54,210.38,123.81,315.58-42.19-173.92-84.38-347.83-126.57-521.75-24.99,125.09-49.98,250.18-74.97,375.28,71.27-150.42,124.54-305.93,159.82-466.55-.3-3.08-.6-6.16-.9-9.24-1.46-11.46-5.29-22.59-9.3-33.38-5.24-14.08-12.22-27.49-19.46-40.62-8.68-15.76-18.6-30.94-28.97-45.64-10.46-14.82-22.25-28.76-34.25-42.35-12.09-13.69-25.07-26.58-38.41-39.05-29-27.11-61.1-50.94-94.3-72.62-59.08-38.59-122.21-70.47-184.96-102.54-30.68-15.68-61.32-31.44-91.73-47.64-34.29-18.26-68.22-37.13-101.93-56.43,3.8,2.18,7.59,4.36,11.39,6.54-27.69-16.32-55.25-32.86-82.61-49.73-16.29-10.04-32.46-20.24-49.1-29.68-12.53-7.11-25.17-14.01-37.93-20.69-22.33-11.71-44.99-22.76-67.78-33.55-19.88-9.41-39.83-18.64-59.46-28.57,75.89,107.94,151.78,215.89,227.68,323.83-67.84-183.5-135.67-367-203.51-550.5.97,4.4,1.93,8.81,2.9,13.21l.44-7.67-.65-8.27c-1.04-5.94-2.11-11.87-3.2-17.8-.41-3.18-1.17-6.28-2.28-9.3-4.81-15.83-13.24-30.25-22.63-43.77-14.88-21.43-32.63-40.79-51.37-58.89-9.96-9.62-20.36-18.77-30.78-27.89-6.21-5.4-12.43-10.79-18.64-16.19-9.52-7.96-19.35-15.52-29.5-22.66-54.55-39.58-115.22-70.33-178.21-94.06-25.91-9.76-52.29-18.25-78.92-25.82-28.59-8.13-57.57-14.54-86.72-20.27-1.87,10.21.3,19.6,6.51,28.17,10.72,26.1,24.29,50.76,40.71,73.97,16.95,27.51,33.9,55.02,50.85,82.53,28.87,46.79,58.96,92.78,90.28,137.95,9.77,13.48,19.19,27.12,27.62,41.5,14.73,25.14,26,51.71,38.02,78.27-4.68-10.36-9.35-20.71-14.03-31.07,5.98,14.67,11.97,29.35,17.95,44.02-4.25-10.58-8.51-21.16-12.76-31.74,8.32,27.87,16.64,55.75,24.96,83.62-2.37-11.3-4.74-22.59-7.11-33.89,4.4,19.73,8.34,39.54,11.79,59.45.74,4.22,1.48,8.45,2.23,12.67,2.24,12.66,4.44,25.34,7.27,37.88,1.7,6.06,3.22,12.16,4.56,18.31,1.15,5.31,2.45,10.58,3.9,15.82,3.84,14.94,7.53,29.68,12.48,44.27,7.47,22.02,17.11,43.34,29.19,63.22,6.84,11.27,14.51,22.14,22.8,32.39,8.83,10.92,18.56,21.54,28.92,31.03,10.76,9.86,22.05,19.22,34.13,27.44,8.35,5.28,16.7,10.56,25.05,15.84,17.72,10.13,36.02,19.1,54.88,26.9,5.04,1.9,10.08,3.8,15.12,5.7,7.05,1.71,14.17,2.99,21.37,3.85,9.63,1.05,19.3,1.48,28.98,1.16,14.62-.48,29.18-2.29,43.81-2.56,6.85-.12,13.62.18,20.4,1.21,7.95,1.2,15.38,3.5,22.93,6.22l-11.98-5.11c5.75,2.54,11.37,5.17,16.89,8.16,6.15,3.33,12.17,6.89,18.11,10.58,14.35,8.93,28.31,18.49,42.36,27.88,37.61,25.12,74.65,50.99,111.04,77.86,45.48,33.58,90.41,68.48,130.94,107.98,18.41,17.94,36.16,36.91,51.69,57.43,5.68,7.5,11.15,15.15,16.36,22.99,7.32,11.03,13.54,22.55,19.59,34.31-4.87-10.28-9.74-20.57-14.6-30.85,10.44,25.15,20.88,50.3,31.32,75.45-3.72-10.84-7.44-21.67-11.16-32.51,4.55,14.44,9.1,28.89,13.65,43.33-3.38-10.97-6.76-21.94-10.15-32.91,3.99,14.5,7.99,28.99,11.98,43.49-3.02-11.1-6.05-22.19-9.07-33.29.78,3.31,1.56,6.63,2.33,9.94-8.93-90.63-17.85-181.27-26.78-271.9,8.12,128.96,16.24,257.93,24.36,386.89,1.81-11.52,3.62-23.04,5.43-34.57-2.97,15.44-5.94,30.89-8.92,46.33,2.71-11.35,5.43-22.7,8.14-34.04-3.75,15-7.4,30.03-10.95,45.09-.61,2.7-1.09,5.43-1.42,8.17-.44,2.77-.71,5.55-.82,8.35-1.37,11.15-1.34,22.26.07,33.31,1.64,15.98,3.53,31.95,5.96,47.83,3.52,22.96,8.31,45.68,15.47,67.8,9.19,28.38,22.23,55.33,39.04,79.99,9.78,14.71,21.26,28.04,34.44,39.98,11.18,14.26,23.8,27.03,37.86,38.3,12.76,10.57,26.16,20.27,39.75,29.73,10.24,6.38,19.86,13.6,28.85,21.66,7.24,5.73,14.65,11.23,22.23,16.5,16.27,11.56,32.95,22.52,50.06,32.79,24.98,14.98,50.6,28.8,76.01,43.01,10.84,6.06,21.62,12.25,32.25,18.68,6.17,3.8,12.34,7.62,18.5,11.45,4.06,4.9,7.66,5.23,10.81,1,.59-4.25,1.18-8.49,1.77-12.74-2.54-11.32-5.52-22.53-8.93-33.61-4.67-17.2-10.25-34.1-16.76-50.71-7.67-18.41-15.34-36.82-23-55.23-17.12-39.1-34.95-77.87-53.5-116.31-10-22.05-20.65-43.77-31.96-65.17-7.9-18.22-17.98-35.13-30.24-50.74l-10.4-5.78c-4.47,13.53-2.67,26.84,5.39,39.92Z"/>
  <path class="cls-1" d="M1385.8,2117.47c-7.84-47.88-19.61-94.69-35.31-140.42-3.12-6.17-6.36-12.29-9.72-18.34-2-4.52-4.76-8.53-8.28-12.02-3.67-5.78-6.99-11.76-9.97-17.93,2.05,4.21,4.1,8.41,6.15,12.62-3.51-7.39-7.02-14.77-10.53-22.16,1.99,4.23,3.99,8.47,5.98,12.7-4.17-9.97-8.11-19.93-10.78-30.43-.84-3.59-1.68-7.17-2.52-10.76-1.51-7.36-2.6-14.79-3.27-22.28.6,9.16,1.2,18.32,1.79,27.48-.86-16.87-1.72-33.73-2.57-50.6.22,9.23.43,18.46.65,27.68.19-7.84.39-15.68.58-23.52-1.14,13.19-2.28,26.38-3.42,39.57,1.56-17.16,3.12-34.33,4.68-51.49-5.41,35.53-10.82,71.06-16.22,106.59,11.54-51.06,23.07-102.11,34.61-153.17-9.99,35.78-19.98,71.57-29.98,107.35,4.1-11.08,8.19-22.16,12.29-33.23-3.41,9.14-6.82,18.27-10.23,27.41,1.94-4.71,3.89-9.42,6.53-13.8,2.05-3.39,4.36-6.52,6.88-9.58-3.58,3.87-7.16,7.73-10.74,11.6,6.06-6.29,12.12-12.59,18.19-18.88-3.9,3.8-7.81,7.6-11.71,11.4,2.58-2.45,5.22-4.75,7.92-7.06,6.47-5.53,13-11.32,18.99-17.28,1.21-1.22,2.42-2.44,3.64-3.66,9.04-9.81,16.6-20.75,22.69-32.82,8.23-13.99,16.46-27.98,24.68-41.97,11.27-18.86,21.49-38.25,30.69-58.17,4.25-6.88,7.36-14.2,9.35-21.95,1.21-5.61,2.41-11.22,3.62-16.82,1.43-8.58,1.19-17.07.27-25.67-.72-5.6-1.73-11.14-3.04-16.62-1.26-6.41-2.95-12.72-5.04-18.93-2.3-7.19-4.97-14.25-7.98-21.17-3.11-7.81-6.58-15.47-10.42-22.96-2.88-5.44-5.75-10.89-8.63-16.33-4.38-7.56-8.98-14.99-13.8-22.28-9.77-15.1-20.27-29.6-31.58-43.57-21.74-26.85-46.08-51.25-72.25-73.77-14.64-12.6-30.16-24.56-45.95-35.67-15.99-11.25-32.31-22.03-49.08-32.09-30.49-18.29-61.9-34.9-93.78-50.63-60.55-29.87-121.85-58.19-182.05-88.79-30.57-15.54-60.87-31.61-90.88-48.2-17.11-9.46-34.08-19.16-50.99-28.97-17.16-9.95-34.06-20.35-51.25-30.23-27.46-15.78-55.44-30.57-83.99-44.28-23.33-11.2-47-21.6-70.62-32.16-10.32-4.62-20.63-9.3-30.79-14.27-8.47-4.14-17-8.42-25.1-13.26-6.62-3.96-13.27-8.07-19.17-13.07l-5-4.44c-2.93-2.77-5.54-5.82-7.83-9.13,2.51,3.99,5.03,7.99,7.54,11.98-3.27-4.27-5.59-8.98-6.93-14.11,2.11,8.94,4.23,17.88,6.34,26.82-2.47-12.27-4.94-24.53-7.41-36.8,4.11,44.2,8.22,88.39,12.34,132.59,2.68-59.06,5.35-118.13,8.03-177.19-5.9,44.37-11.8,88.74-17.7,133.12.77-3.16,1.8-6.22,3.07-9.21,1.61-4.42,3.7-8.62,6.29-12.59-2.36,4.14-4.72,8.29-7.09,12.43,5.86-9.24,11.16-18.78,15.9-28.62,1.56-3.41,3.05-6.85,4.46-10.32,2.88-6.93,5.74-13.87,8.92-20.67,2.5-5.33,5.14-10.59,7.67-15.9,6.02-12.6,11.81-26.19,16.66-38.93,5.85-15.52,11.33-31.17,16.43-46.96,4.2-13.73,8.4-27.46,12.59-41.19,3.45-12.14,6.28-24.42,8.49-36.83.52-5.25.61-10.52.26-15.78.03-5.52-.3-11.03-.99-16.51-1.89-10.79-5.16-21.12-9.82-30.99-6.29-13.34-13.98-25.93-22.57-37.92-10.88-15.18-23.3-29.44-36.12-43-16.05-16.97-32.86-33.23-50.44-48.6-22.18-19.38-46.15-36.61-71.01-52.34-24.59-15.57-50.09-29.7-76.53-41.9-21.58-9.96-43.52-19.09-65.9-27.13-14.12-5.08-28.32-9.64-42.66-14.02-16.17-4.94-32.5-9.31-48.92-13.34-24.42-5.99-49.13-10.59-73.89-14.92-6.29,5.29-8.06,12.17-5.3,20.66,5.05,21.72,11.5,43.03,19.36,63.92,7.08,21.17,15.52,41.77,25.31,61.81,3.21,8.32,8.93,12.55,17.14,12.68,5,1.12,10,2.25,14.99,3.37-2.68-.64-5.37-1.28-8.05-1.92,8.01,1.91,16.02,3.83,24.02,5.74l-8.02-2.01c8.34,2.12,16.68,4.24,25.02,6.37l-8-2.1,25.86,7.08c-2.66-.73-5.32-1.46-7.97-2.19,9.3,2.63,18.51,5.55,27.62,8.75,9.53,3.12,18.94,6.55,28.24,10.29,9.73,3.78,19.31,7.91,28.74,12.39,9.8,4.36,19.42,9.09,28.86,14.18,16.27,8.8,32.08,18.29,47.39,28.68,9.44,6.2,18.58,12.84,27.41,19.9,8.99,6.96,17.6,14.36,25.83,22.2,8.46,7.51,16.49,15.46,24.11,23.83,4.9,5.58,9.79,11.16,14.69,16.75,7.04,8.36,13.69,17.01,19.97,25.95,5.88,7.87,11.43,15.97,16.65,24.3,8.6,14.02,17,28.53,22.67,44.02l4.48,13.33c2.27,7.78,3.82,15.69,4.67,23.74-.53-5.11-1.05-10.21-1.58-15.32.72,8.56,1.44,17.12,2.16,25.68-.4-5.13-.81-10.26-1.21-15.39.29,4.55.17,9.07-.34,13.59-.23,4.02-.79,8-1.68,11.93,2.21-9.9,4.43-19.8,6.64-29.7-1.14,4.59-2.28,9.19-3.42,13.78,8.9-27.29,17.79-54.59,26.69-81.88-1.71,4.32-3.43,8.64-5.14,12.96l11.52-27.64c-2.33,4.29-4.96,8.38-7.9,12.27,2.97-4.04,5.93-8.09,8.9-12.13-8.7,10.78-18.25,20.86-26.87,31.71-3.88,4.89-7.6,9.88-11.22,14.96-5.57,7.46-10.58,15.27-15.03,23.43-3.04,5.2-5.94,10.48-8.69,15.84,2.36-4.14,4.72-8.28,7.08-12.42-5.57,7.44-11.24,14.81-16.44,22.52-3.41,5.07-6.43,10.24-9.34,15.61-4.69,8.33-6.96,17.26-6.83,26.81-2.3,17.53-3.44,35.15-3.42,52.86-.09,13.07-.19,26.14-.28,39.21-1.6,14.35.45,27.98,6.16,40.9,6.91,11.04,13.83,22.08,20.74,33.11,2.47,2.51,5.05,4.88,7.75,7.13,3.69,3.17,7.5,6.15,11.43,9.01,9.67,7.03,19.89,13.25,30.33,19.07,28.06,15.65,57.51,28.62,86.75,41.84,20.19,9.13,40.16,18.7,59.87,28.82,23.1,11.87,45.75,24.55,68.18,37.64,28.25,16.49,56.21,33.46,84.67,49.6,24.34,13.8,48.84,27.31,73.5,40.52,46.87,25.12,94.31,49.13,141.5,73.62,48.78,25.32,97.91,50.51,142.71,82.56,22.26,15.93,43.45,33.42,62.67,52.94,18.49,18.78,35.09,39.37,49.34,61.54,13.56,21.1,25.03,43.57,33.63,67.16,3.64,10,6.69,20.24,9.4,30.54,1.98,7.82,3.69,15.7,5.11,23.64,1.79,7.94,2.86,15.99,3.21,24.15-.09-5.51-.18-11.02-.28-16.52.13,10.34.26,20.67.39,31.01.09-5.56.18-11.12.28-16.68l-1.46,29.84c.28-5.6.56-11.2.84-16.8-.7,7.5-2.1,14.88-4.18,22.12,9.84-25.53,19.68-51.06,29.53-76.59-14.51,35.2-29.03,70.39-43.54,105.59,20.39-38.89,40.78-77.78,61.16-116.66-9.99,17.54-19.98,35.08-29.98,52.62,14.71-23.26,29.42-46.52,44.13-69.78-2.34,2.97-4.68,5.94-7.02,8.91,4.15-3.83,8.3-7.65,12.46-11.48-1.51,1.25-3.01,2.49-4.52,3.74-1.7,1.11-3.4,2.21-5.1,3.32-4.76,2.92-10.02,5.19-15.06,7.58-10.39,4.92-21.1,9.12-31.13,14.78-11.24,6.33-21.49,14.14-30.41,23.46-4.43,4.63-8.43,9.53-12.15,14.75-2.49,3.28-4.72,6.73-6.7,10.34-6.77,9.97-10.71,21.2-11.82,33.67-2.98,13.22-5.95,26.45-8.93,39.67-2.46,13.33-4.92,26.66-7.39,39.99-1.13,9.46-2.26,18.92-3.4,28.37,1.41,23.29,2.82,46.57,4.22,69.86,1.92,9.91,4.97,19.76,8.24,29.3,2.83,8.26,5.8,16.47,9.19,24.52,6.92,16.44,15.43,32.15,25.25,47.03,5.16,7.82,10.64,15.44,16.44,22.8,2.09,2.72,4.24,5.39,6.45,8.01,4.25,4.73,7.65,10.06,10.18,15.98-2.19-4.19-4.37-8.37-6.56-12.56,11.11,32.42,20.63,65.31,28.56,98.67,1.79,7.9,6.42,12.37,13.89,13.42,5.24-1.82,7.92-5.4,8.05-10.72,3.27-9.56,3.51-19.46.73-29.72-2.06-22.42-5.16-44.69-9.31-66.82Z"/>
  <path class="cls-1" d="M1332.34,1798.74c-3.21-3.37-6.87-4.74-11-4.1-4.3.87-7.45-1.2-9.45-6.21l8.28,8.59c-6.44-7.92-12.59-15.88-17.84-24.67-4.53-7.58-8.61-15.38-12.24-23.43-3.74-8.3-7.11-16.82-9.75-25.53-1.03-3.6-2.05-7.19-3.08-10.79-1.92-7.41-3.47-14.89-4.66-22.45,1.28,9.69,2.57,19.38,3.85,29.07-1.79-13.56-3.59-27.13-5.38-40.69,1.03,9.71,2.06,19.42,3.09,29.13-1.35-13.67-2.71-27.33-4.06-41,.77,9.72,1.53,19.45,2.3,29.17-.83-17.86-1.65-35.72-2.48-53.57.2,9.73.4,19.46.6,29.19.07-13.9.15-27.8.22-41.69-.1,9.72-.2,19.44-.3,29.16.58-13.95,1.16-27.89,1.75-41.84l-1.23,29.11c.38-4.31.75-8.62,1.13-12.93-17.71,74.26-35.42,148.52-53.13,222.78,27.99-98.7,55.99-197.4,83.98-296.1-44.11,95.19-88.23,190.39-132.34,285.58,65.6-115.1,131.19-230.2,196.79-345.3,1.02-6.9,1.94-13.81,2.77-20.73.74-3.37.92-6.75.54-10.16-.05-4.65-.56-9.26-1.52-13.82-3.61-18.33-10.64-35.74-18.82-52.47-5.82-11.9-12.21-23.55-19.17-34.83-3.13-4.96-6.26-9.91-9.4-14.87-3.25-4.59-6.49-9.19-9.74-13.78-16.55-22.92-35.24-44.46-55.2-64.45-78.55-78.64-177.53-131.19-275.17-182.03-46.31-24.11-92.56-48.3-138.26-73.54-26.93-14.88-53.65-30.15-80.18-45.74-25.34-14.89-50.37-30.3-75.54-45.49-43.93-26.5-89.78-49.4-136.26-71.03-17.86-8.31-35.91-16.31-53.45-25.31-5.72-2.94-11.41-5.94-17.01-9.12-7.15-4.07-13.82-8.58-20.43-13.45,3.2,2.4,6.4,4.8,9.59,7.21-4.28-3.55-8.41-7.06-12.03-11.32-1.35-1.41-2.52-2.96-3.52-4.63-1.61-2.19-2.92-4.55-3.92-7.09,4.03,9.01,8.07,18.02,12.1,27.03-4.56-10.62-9.12-21.24-13.68-31.86,26.91,104.19,53.82,208.37,80.74,312.56-15.4-139.17-30.79-278.34-46.19-417.52-18.66,83.83-37.33,167.66-55.99,251.48,27.76-102.48,55.51-204.96,83.27-307.44,1.04-3.75,1.65-7.56,1.82-11.44.48-5.66.24-11.17-.56-16.79-1.22-8.62-2.27-17.25-4.78-25.61-2.13-7.11-5.16-13.99-8.36-20.67-4.89-10.18-11.23-19.77-17.76-28.96-7.85-11.05-16.35-21.68-25.46-31.72-8.36-9.22-17.03-18.19-25.95-26.87-13.22-12.86-26.75-25.45-40.82-37.36-53.14-44.99-114-80.11-178.05-107.11-28.62-12.07-57.87-22.56-87.62-31.48-28.41-8.52-57.22-15.36-86.23-21.45-5.97,13.05-5.67,26.59.89,40.6,12.92,47.09,27.25,93.76,42.98,139.99,14.94,46.5,31.27,92.5,48.97,138.01,3.09,15.16,10.92,26.2,23.5,33.12,18.65,12.17,37.36,24.24,54.74,38.21,19.64,15.79,38.04,33.47,53.95,53.03,16.71,20.53,31.16,42.7,42.68,66.56,4.74,9.81,9.43,19.68,13.45,29.81,4.51,11.35,8.27,22.85,11.62,34.58l-2.89-11.46c1.7,6.9,3.39,13.8,5.09,20.71l-2.63-11.52c1.47,6.84,2.94,13.68,4.41,20.52-.8-3.86-1.59-7.71-2.39-11.57,1.3,6.8,2.59,13.6,3.89,20.41-.73-3.87-1.45-7.74-2.18-11.61,1.18,6.79,2.35,13.58,3.53,20.36-.67-3.88-1.34-7.76-2.01-11.64,1.1,6.8,2.21,13.59,3.31,20.39-.63-3.89-1.26-7.77-1.89-11.66,2.57,15.93,4.75,32.16,8.54,47.9,1.98,8.21,4.24,16.32,6.87,24.34,6.52,19.87,15.14,39.09,25.42,57.3,10.8,19.13,22.92,37.53,35.68,55.41,3.68,5.82,7.94,11.16,12.77,16.02,3.63,4,7.46,7.81,11.49,11.41,6.51,5.83,13.31,11.29,20.44,16.35,26.34,18.69,56.23,31.1,85.09,45.25,29.3,14.37,57.23,31.22,85.78,46.98,17.84,9.85,35.9,19.31,53.68,29.27,24.34,13.63,48.25,28.05,71.83,42.97,28.34,17.93,56.08,36.79,83.81,55.65,23.56,16.02,47.04,32.17,70.3,48.63,42.23,29.88,83.83,60.94,122.73,95.09,14.96,13.13,29.65,26.55,43.11,41.22,7.17,7.81,14.09,16.19,20.21,24.85,5.65,7.98,10.7,16.24,15.52,24.75-1.84-3.49-3.69-6.99-5.53-10.48,3.23,6.22,6.46,12.45,9.7,18.67-1.74-3.54-3.49-7.09-5.23-10.63,4.05,8.95,8.1,17.91,12.16,26.86-1.53-3.63-3.07-7.27-4.6-10.9l7.41,18.94c-1.42-3.68-2.84-7.35-4.27-11.03,4.45,12.73,8.18,25.62,10.34,38.96,2.78,17.12,3.59,34.48,4.8,51.75-.24-3.92-.47-7.83-.71-11.75.26,5.41.15,10.8-.32,16.2-.3,3.63-.77,7.24-1.43,10.82-1.31,7.87-3.2,15.59-4.96,23.36-3.54,15.6-6.23,31.48-7.33,47.47-1.37,19.89.82,39.83,5.07,59.26,5.27,24.03,13.62,47.34,23.79,69.72,5.53,12.16,11.68,24.04,18.18,35.71,4.88,8.67,9.88,17.27,14.98,25.81,3.08,5.39,6.16,10.78,9.24,16.16,10.56,17.96,22.48,35.11,35.11,51.66,11.83,15.49,24.34,30.45,37.62,44.73,20.27,21.79,41.82,42.26,63.92,62.16,9.26,8.34,18.53,16.67,27.94,24.85,4.23,4.38,9.08,7.88,14.55,10.5,4.28.15,7.9-1.39,10.86-4.6,8.24-11.23,10.49-24.14,6.73-38.72-3.87-46.95-9.2-93.73-15.99-140.35-5.97-46.73-13.38-93.23-22.25-139.5-.29-15.05-5.91-26.88-16.87-35.49Z"/>
  <path class="cls-1" d="M1458.25,2076c-13.03-40.38-26.05-80.77-39.08-121.15-4.76-11.41-9.51-22.81-14.27-34.22-3.14-5.97-6.28-11.94-9.43-17.91-2.98-4.52-6.27-8.77-9.89-12.77-10.14-11.71-17.72-25.42-24.77-39.13,2.8,6.06,5.59,12.11,8.39,18.17-4.26-9.31-8.53-18.61-12.79-27.92,2.7,6.11,5.4,12.23,8.1,18.34-4.01-9.48-8.02-18.95-12.04-28.43,2.59,6.18,5.19,12.35,7.78,18.53-3.2-8.61-6.18-17.2-8.49-26.11-2.38-9.19-3.94-18.36-5.35-27.75,2.61,33.17,5.22,66.34,7.83,99.52-2.47-53.02-4.94-106.04-7.42-159.06-.35,14.1-.7,28.2-1.05,42.3.24-4.05.49-8.1.73-12.15-4.39,40.25-8.78,80.5-13.18,120.75,5.26-43.01,10.52-86.02,15.78-129.03-5.6,40.35-11.19,80.69-16.79,121.04,6.53-42.95,13.07-85.91,19.6-128.86-9.95,54.47-19.89,108.94-29.84,163.4,35.95-94.65,73.81-188.51,113.56-281.59,2.04-4.59,3.74-9.32,5.11-14.17,2.3-5.8,4.17-11.72,5.62-17.78l.91-7.22c.3-4.19.2-8.37-.31-12.53-.3-4.81-.98-9.58-2.06-14.29-1.51-7-3.4-13.94-5.43-20.8-3.73-12.55-8.72-25.01-14.29-36.84-5.75-12.23-12.07-24.16-18.83-35.87-6.98-12.09-14.79-23.75-23-35.05-8.31-11.43-16.98-22.55-26.11-33.34-38.39-45.34-84-83.89-133.13-117.11-52.63-35.58-109.02-64.78-165.53-93.58-50.34-25.66-100.51-51.69-150.05-78.89-27.69-15.2-55.15-30.8-82.43-46.73-28.05-16.38-55.61-33.62-83.86-49.65-24.27-13.77-49.09-26.54-74.16-38.78-22.48-10.98-45.32-21.18-68-31.74-15.62-7.27-31.22-14.69-46.14-23.32-5.88-3.4-11.68-6.96-17.15-10.99-1.88-1.47-3.76-2.93-5.63-4.4-3.3-2.72-6.34-5.69-9.13-8.93,21.53,53.21,43.06,106.42,64.6,159.63-19.64-64.96-39.27-129.93-58.91-194.89,4.53,51.96,9.07,103.91,13.6,155.87-2.33-40.15-4.67-80.29-7-120.44,1.63,38.74,3.26,77.49,4.9,116.23-1.1-40.42-2.19-80.85-3.29-121.27-.08,52.59-.15,105.19-.23,157.78,10.5-90.05,21-180.11,31.5-270.16-10.15,54.64-20.3,109.27-30.44,163.91,10.06-44.42,20.13-88.85,30.19-133.27-9.86,40.51-19.72,81.02-29.58,121.53,12.72-49.01,25.44-98.01,38.16-147.02,4.86-15.51,8.55-31.25,11.06-47.23.91-4.86,1.36-9.77,1.37-14.73.51-6.3.9-12.62,1.16-18.93-.44-15.04-5.17-29.32-11.52-42.85-8.41-17.93-19.51-34.66-31.51-50.38-8.99-11.77-18.8-22.88-28.94-33.66-4.39-4.81-8.92-9.48-13.6-14-7.88-7.93-15.86-15.76-23.94-23.48-11.67-10.7-23.74-20.96-36.12-30.84-15.65-12.5-32.18-23.93-49.01-34.76-29.66-19.09-60.74-35.69-92.8-50.38-16.8-7.7-34.01-14.56-51.33-20.98-16.38-6.06-32.91-11.74-49.66-16.71-12.53-3.72-25.13-7.2-37.79-10.45-17.14-4.4-34.44-8.06-51.76-11.66-5.57,8.77-5.59,18.13-.07,28.09,7.73,21.27,16.42,42.13,26.06,62.6,11.3,25.86,23.32,51.39,36.05,76.59,7.29,18.8,17.73,35.5,31.31,50.09,19.15,7.51,38.3,15.08,56.95,23.78,16.01,7.46,31.56,15.79,46.76,24.77,41.73,24.64,79.59,56.16,110.91,93.15,15.11,17.85,28.58,36.83,40.33,57.07,10.63,18.3,20.14,37.19,27.59,57,5.81,15.45,10.5,31.22,12.9,47.58,2.07,14.09,2.25,28.14,1.89,42.33.32-7.44.65-14.88.97-22.32-.47,10.33-.94,20.67-1.41,31l1.25-22.31c-.93,16.04-2.24,32.26-2.69,48.37-.2,7.46.08,14.83.66,22.27,8.23-42.05,16.45-84.1,24.68-126.15-.55,2.16-1.11,4.31-1.66,6.47,12.66-40.66,25.32-81.32,37.99-121.97l-4.32,6.6c-10.6,19.13-17.64,39.6-21.13,61.41-7.65,30.12-14.54,60.42-20.65,90.89-5.53,24.28-10.03,48.75-13.52,73.41-3.68,11.62-1.83,21.59,5.53,29.94,29.37,65.74,73.04,113.21,131,142.42,5.99,3.14,12,6.26,18.02,9.36,14.18,7.28,28.49,14.3,42.76,21.41,37.15,18.51,73.4,38.67,109.02,59.97,22.05,13.18,43.8,26.84,65.69,40.27,21.56,13.23,43.19,26.35,64.84,39.42,37.5,22.64,75.11,45.08,112.35,68.14,35.23,21.82,70.18,44.17,103.94,68.22,35.37,25.19,68.79,53.32,95.93,87.43,24.86,31.25,43.96,66.92,55.09,105.32,5.18,17.87,8.64,36.21,10.3,54.74.78,8.93,1.19,17.88,1.23,26.84.44,9.44.12,18.85-.97,28.23,1.02-7.73,2.04-15.47,3.06-23.2-1.67,11.91-3.34,23.81-5.01,35.72,1.27-7.75,2.54-15.5,3.82-23.25-2.16,11.56-4.32,23.12-6.48,34.67,1.52-7.75,3.04-15.51,4.55-23.26-1,5.1-2.28,10.12-3.85,15.06-1.25,4.45-2.7,8.84-4.37,13.16-2.62,7.06-5.66,13.95-8.58,20.89-2.26,5.37-4.41,10.75-6.34,16.26-2.59,7.55-5.17,15.11-7.76,22.66-1.41,4.5-2.23,9.12-2.48,13.85,45.08-81,90.16-162,135.24-243-5.43,3.87-10.78,7.72-16.49,11.16-5.28,3.18-10.62,6.26-15.83,9.56-4.45,2.81-8.77,5.76-12.95,8.95-5.55,4.23-10.51,8.84-15.49,13.73-7.91,12.51-13.48,25.98-16.71,40.42-8.83,26.93-16.53,54.18-23.12,81.76-4.98,20.37-9.96,40.74-14.94,61.12-6.86,21.27-9.96,42.97-9.27,65.09,10.62,41.82,27.52,80.36,50.72,115.62,4.53,6.88,9.28,13.61,14.25,20.19,7.38,9.67,15.1,19.06,23.23,28.11s16.12,17.2,24.44,25.55c5.34,5.31,10.67,10.64,15.99,15.97,6.23,5.87,11.46,12.54,15.68,20.02-3.14-5.97-6.28-11.94-9.43-17.91,11.03,26.35,21.85,52.8,32.46,79.32,2.2,9.35,7.63,14.82,16.29,16.4,5.23-3.44,7.31-8.2,6.23-14.28,1.64-12.88.16-25.63-4.43-38.25-5.96-28.69-12.94-57.13-20.95-85.32Z"/>
  <path class="cls-1" d="M1358.14,1560.21c-.08,2.41-.15,4.81-.23,7.22.17-4.3.34-8.6.51-12.91-1.44.63-2.87,1.25-4.31,1.88,73.16,116.3,146.33,232.61,219.49,348.91-79.48-168.77-158.96-337.53-238.45-506.3,19.23,151.1,38.47,302.2,57.7,453.3,19.74-189.88,39.48-379.75,59.22-569.63-1.2,4.47-2.39,8.93-3.59,13.4,3.41-8.8,5.71-17.85,6.89-27.15.06-2.78.12-5.56.18-8.34-.14-10.5-2.92-20.93-5.86-30.95-1.93-6.36-4.21-12.59-6.85-18.68-2.7-6.91-5.74-13.66-9.13-20.26-7.68-15.46-16.58-30.43-25.97-44.9-20.44-31.49-44.72-60.46-71.41-86.84-27.12-26.81-56.92-51.03-88.39-72.55-61.07-41.77-127.24-75.02-193.59-107.45-28.88-14.12-57.8-28.16-86.5-42.63-34.48-17.38-68.57-35.47-102.42-54.04,4.16,2.29,8.33,4.58,12.49,6.87-27.26-15.63-54.37-31.5-81.29-47.71-30.29-18.25-60-37.47-90.86-54.77-23.8-13.35-48.07-25.82-72.61-37.75-21.86-10.63-43.92-20.83-65.87-31.27,100.46,107.66,200.92,215.32,301.37,322.97-106.76-159.92-213.52-319.84-320.28-479.75,20.18,137.7,40.37,275.4,60.55,413.11,9.43-176.02,1.24-350.37-24.57-523.04-2.67-7.43-5.95-14.58-9.84-21.45-10.12-18.31-23.27-34.93-37.12-50.52-18.11-20.36-38.2-38.67-58.78-56.47-12.65-11.34-25.8-22.07-39.44-32.19-13.75-10.25-27.9-19.92-42.43-29.03-54.64-34.31-114.08-60.84-175.22-81.21-26.4-8.79-53.19-16.42-80.22-23-23.36-5.68-46.9-10.35-70.55-14.63.53,17.39,7.26,32.68,20.2,45.87,35.25,50.06,71.68,99.25,109.29,147.56,36.95,48.82,75.05,96.73,114.3,143.72,9.4,15.9,22.42,26.36,39.09,31.37,5.36,73.57,10.73,147.13,16.09,220.7l-3.28-38.2c1.21,24.71,2.13,49.44,2.73,74.17.51,3.97,1.03,7.95,1.54,11.92,1.56,11.47,4.09,22.64,6.84,33.89,2.52,10.32,5.63,20.4,9.46,30.32,4.12,10.65,8.67,21.17,14.09,31.23,12.15,22.52,27.09,43.14,44.8,61.61,23.73,24.75,51.5,44.73,82.06,60.21,29.62,15,61.13,25.5,93.43,33.02,8.85,2.14,17.8,3.76,26.83,4.86,7.23,1.51,14.53,1.87,21.9,1.05,11.71-.64,23.44-2.51,34.84-5.2,13.01-3.07,25.6-7.39,38.3-11.5,7.76-2.51,15.52-5.18,23.5-6.88,5.69-1.21,11.38-2.09,17.21-2.25,3.25-.2,6.5-.08,9.73.36,4.27.52,8.45,1.44,12.54,2.74-4.49-1.39-8.98-2.78-13.47-4.17,4.35,1.5,8.58,3.3,12.67,5.41,3.46,1.74,6.83,3.64,10.12,5.69,7.61,4.58,14.93,9.59,22.14,14.78,20.28,14.59,39.86,30.21,59.23,45.98,23.45,19.1,46.5,38.69,69.36,58.49,13.29,11.51,26.48,23.12,39.54,34.89,9.47,8.44,18.76,17.08,27.86,25.91,8.71,8.44,17.2,17.09,25.47,25.95-8.45-9.19-16.91-18.38-25.36-27.58,16.1,17.89,32.21,35.78,48.31,53.68-8.22-9.42-16.43-18.85-24.65-28.27,11.71,13.8,23.42,27.6,35.13,41.4-8.08-9.56-16.16-19.11-24.23-28.67,6.9,8.3,13.51,16.82,19.83,25.56,6.03,8.33,11.72,16.89,17.08,25.67-59.67-110.08-119.34-220.17-179.01-330.25,72.32,182.87,144.63,365.74,216.95,548.6,3.48-139.69,6.97-279.37,10.45-419.06-63.32,166.93-83.84,333.74-61.55,500.42l.77,4.59c1.46,7.6,4.24,15.02,6.55,22.39,7.04,22.48,13.44,45.15,20.52,67.62,5.7,18.07,11.77,36.09,19.13,53.56,6.98,16.56,14.52,32.96,23.62,48.47,9.28,15.83,19.45,31.15,31.32,45.19,12.15,14.38,25.21,27.91,39.37,40.33,29.93,26.28,63.96,47.21,99.19,65.56,9.51,4.24,18.64,9.17,27.39,14.79,8.99,5.6,18.17,10.86,27.54,15.79,16.76,8.98,33.93,17.11,51.28,24.88,28.24,12.64,57.19,23.64,85.66,35.74,13.17,5.6,26.16,11.58,38.97,17.94,4.52,2.25,9.04,4.48,13.58,6.7,3.43,2.81,7.04,3.45,10.83,1.93-.03-4.65-.06-9.3-.09-13.94-2.86-14.66-8.08-28.55-15.67-41.69-22.97-46.84-47.23-93.01-72.78-138.51-19.41-34.91-39.5-69.42-60.27-103.53-16.08-27.65-33.05-54.75-50.89-81.3-5.97-6.94-11.93-13.88-17.9-20.81-10.1-7.99-14.13-5.63-12.08,7.09Z"/>
</svg>