<svg width="55" height="65" viewBox="0 0 55 65" fill="none" xmlns="http://www.w3.org/2000/svg">
<path d="M53.9828 16.4656V26.4481C48.9976 26.3533 44.1504 24.6717 40.0863 21.6162L39.2858 21.0144V22.0158V44.4748C39.2858 44.4748 39.2858 44.4749 39.2858 44.4749C39.2846 48.538 38.1013 52.5019 35.8969 55.8362C33.6926 59.1703 30.5737 61.7146 26.9602 63.1331C23.347 64.5515 19.4085 64.778 15.6703 63.783C11.9317 62.7879 8.56785 60.6175 6.03058 57.5576C3.49308 54.4974 1.90413 50.6941 1.4797 46.6556C1.05527 42.6171 1.81608 38.54 3.6585 34.9701C5.50081 31.4005 8.33546 28.5105 11.7798 26.683C15.0952 24.9238 18.8252 24.2286 22.5064 24.6766V34.8667C20.7987 34.4417 19.0066 34.5232 17.3336 35.1092C15.445 35.7707 13.8082 37.0401 12.6541 38.7312C11.5002 40.422 10.8864 42.4494 10.8973 44.5241C10.9082 46.5987 11.5433 48.619 12.7151 50.2964C13.8871 51.9742 15.5372 53.2245 17.4329 53.8642C19.3289 54.504 21.3697 54.4986 23.2626 53.849C25.1552 53.1995 26.7993 51.9406 27.9633 50.2569C29.1271 48.5734 29.7526 46.5499 29.7538 44.4752V44.4749V1.08667H39.2903C39.3095 1.88228 39.3864 2.67549 39.5203 3.45943L39.521 3.46311C39.8987 5.57813 40.6835 7.59131 41.8285 9.37946C42.9731 11.1669 44.4539 12.6924 46.1816 13.8617C48.5033 15.4704 51.2043 16.371 53.9828 16.4656Z" fill="#4772DE" stroke="#4772DE"/>
</svg>
