<?xml version="1.0" encoding="UTF-8"?>
<svg id="Lag_1" data-name="Lag 1" xmlns="http://www.w3.org/2000/svg" viewBox="0 0 1646.25 5648">
  <defs>
    <style>
      .cls-1 {
        fill: #e51040;
        isolation: isolate;
        opacity: .11;
        stroke-width: 0px;
      }
    </style>
  </defs>
  <path class="cls-1" d="M1371.12,4133.75c-3.57-19.64-7.13-39.28-10.7-58.93,3.33,8.57,6.67,17.14,9.99,25.68-4.23-11.63-8.09-23.95-11.56-36.95-2.85-10.62-5.41-21.6-7.69-32.97-2.53-11.42-4.8-23.18-6.79-35.23-2.79-16.39-5.23-33.07-7.3-50.08,3.62,30.22,7.25,60.43,10.87,90.65-4.59-38.93-9.18-77.87-13.77-116.83,3.34,30.39,6.68,60.78,10.03,91.17-5.17-57.87-10.36-115.77-15.53-173.65,2.3,30.89,4.61,61.78,6.92,92.68-2.54-40.44-5.09-80.87-7.63-121.31l5.7,93.05c-1.95-40.74-3.89-81.45-5.84-122.19,1.47,31.12,2.93,62.21,4.41,93.33-2.2-60.96-2.59-122.09-1.18-183.4,0,31.14,0,62.26.01,93.4,1.73-51.76,3.46-103.52,5.19-155.29-28.7,332.17-57.4,664.36-86.08,996.53,52.39-385.26,104.78-770.49,157.17-1155.75-23.31,70.05-46.61,140.13-69.91,210.18,35.62-76.06,66.12-161.47,91.47-256.25,1.34-4.28,2.4-8.92,3.16-13.95,2.46-12.58,4.57-25.51,6.36-38.76.74-5.54,1.48-11.1,2.22-16.64,1.74-16.89,1.87-34.4,1.4-51.64-.59-22.1-2.26-44.15-4.82-65.44-6.32-52.59-15.99-102.22-27.04-149.9-7.57-32.67-15.69-64.71-24.49-95.56-8.81-30.84-18.38-60.43-28.33-89.17-78.37-226.66-186.87-372.7-294.15-505.14-50.82-62.74-101.94-124.07-152.32-188.88-53.65-69-106.49-141.61-158.58-217.29-14.66-21.3-29.19-43.12-43.83-64.49-13.48-19.67-27.13-38.58-40.95-56.77-24.35-32.04-49.2-61.98-74.27-90.6-18.58-21.22-37.28-41.77-55.9-62.76-17.53-19.79-34.76-40.31-51.29-64.66l12.3,19.69c-3.49-5.24-6.85-10.92-10.07-17.11-3-5.24-5.82-11-8.45-17.29,53.88,247.08,107.75,494.17,161.64,741.28-56.79-284.46-113.57-568.95-170.36-853.42,47.7,357.7,95.41,715.39,143.11,1073.12-22.02-480.84-44.04-961.68-66.06-1442.51l.51,34.78,1.22-18.52.27-19.89c.43-15.16.4-30.32-.07-45.42,0-7.52-.38-14.93-1.12-22.22-3.21-43.17-11.46-83.41-20.94-120.46-13.77-53.74-31.27-101.72-49.55-146.67-9.78-24.05-19.9-47.15-30.28-69.65-15.41-33.37-30.73-66.92-47.24-97.16-13.66-25.03-27.65-49.16-42.04-71.73-14.26-22.35-28.93-43.22-43.75-63.26-18.02-24.38-36.65-46.3-55.45-66.97-14.48-15.91-29.11-30.82-43.94-44.8-30.83-29.06-62.29-54.14-94.2-75.31s-61.03-36.13-91.94-50.11c-3.37,27.48-2.41,54.32,2.89,80.52,7.6,77.62,18.37,152.83,32.33,225.66,13.91,85.01,27.83,170.02,41.74,255.03,23.7,144.59,48.8,287.75,75.3,429.45,7.46,34.05,14.92,68.12,22.38,102.17-6.01-27.61-12.03-55.22-18.04-82.85,7.06,34.72,14.12,69.42,21.19,104.15-5.64-28.09-11.28-56.2-16.92-84.28,6.63,35.35,13.24,70.68,19.86,106.03-5.25-28.56-10.48-57.12-15.73-85.69,8.19,57.98,16.39,115.95,24.58,173.93-3.4-30.19-6.8-60.36-10.21-90.55,4.31,44.4,8.62,88.82,12.93,133.21-2.34-30.74-4.7-61.51-7.04-92.25,2.97,44.25,5.94,88.52,8.91,132.76-1.22-31.09-2.45-62.18-3.66-93.28,1.71,43.74,3.43,87.51,5.15,131.26.47,11.98,1.06,23.9,1.75,35.83.5,8.82,1.15,17.56,1.97,26.21,1.8,20.42,3.54,40.86,5.18,61.36,1.17,13.35,2.83,26.33,5,38.96,1.49,11,3.27,21.72,5.31,32.17,3.73,19.02,8.06,37.31,12.29,55.7,7.49,32.55,14.69,65.37,21.74,98.49,6.48,30.44,12.91,60.96,19.68,91.05,9.3,41.26,19.21,81.53,30.12,120.44,12.33,43.97,25.77,85.99,40.42,125.6,31.93,86.39,69.56,159.19,110.21,220.3,8.21,13.73,16.86,25.48,25.94,35.28,6.73,8.09,13.62,15.31,20.67,21.62,16.78,15.43,34.1,26.48,51.73,34.5,17.87,8.14,35.82,12.1,53.76,18.49,11.34,4.06,22.73,8.94,33.65,17.46,7.6,5.94,15.01,13,22.21,21.42,10.16,11.9,19.7,26.26,29.2,40.91-4.1-6.56-8.2-13.15-12.3-19.72,24.49,39.79,48.57,80.92,72.74,121.84-4.02-6.86-8.04-13.73-12.06-20.59,7.45,12.83,14.91,25.66,22.36,38.48-4-6.91-8-13.85-12.01-20.77,7.56,13.2,15.12,26.38,22.69,39.59-3.98-6.99-7.97-13.98-11.95-20.97,7.67,13.58,15.34,27.16,23.02,40.71-3.97-7.07-7.93-14.11-11.9-21.17,7.79,13.98,15.57,27.94,23.36,41.92-3.95-7.12-7.89-14.26-11.84-21.37,7.9,14.38,15.8,28.76,23.71,43.14-3.93-7.19-7.86-14.38-11.78-21.57,8.02,14.81,16.04,29.59,24.06,44.4-3.91-7.27-7.82-14.53-11.73-21.8,8.14,15.23,16.28,30.47,24.43,45.7-3.89-7.34-7.78-14.66-11.66-22,8.26,15.68,16.52,31.37,24.78,47.05l-11.6-22.2c8.38,16.13,16.74,32.29,25.12,48.43-3.85-7.47-7.69-14.93-11.54-22.37,25.55,50.26,50.81,101.24,74.75,155.96,20.26,46.3,39.92,94.9,57.2,147.89,12.76,39.13,24.45,80.02,34.12,124.07,4.7,21.4,8.98,44.47,12.12,67.5.89,6.97,1.79,13.95,2.69,20.92,1.5,12.85,2.66,25.88,3.48,39.08-1.71-31.04-3.41-62.08-5.12-93.13,1.97,37.06,3.95,74.08,5.92,111.14-1.3-31.14-2.59-62.28-3.89-93.43,1.03,46.58,2.06,93.18,3.09,139.75,7.65-185.6,15.29-371.23,22.94-556.83-12.1,210.2-24.19,420.43-36.29,630.64l-.66,37.88c.35,2.96.89,5.41,1.56,8.04,1.53,6.04,3.44,11.7,5.13,17.49,2.07,7.07,4.05,14.26,5.95,21.6,4.94,19.14,9.29,38.98,12.52,60.18,4.4,28.76,6.7,58.95,8.36,89.27,2.03,37.13,3.13,74.56,4.76,111.82,2.35,54.09,5.59,107.88,10.63,160.92,5.2,54.79,12.3,108.26,21.38,160.05,4.87,27.78,10.27,54.79,16.24,81.33,7.82,34.78,16.37,68.72,25.96,100.87,8.22,27.58,16.85,54.59,25.93,80.57,9.69,27.76,19.99,54.37,30.45,80.42,5.3,12.9,10.6,25.81,15.89,38.71,5.73,15.01,11.47,30.01,17.19,45.05,11.02,27.81,22.51,54.72,34.29,80.65,23.29,51.29,47.96,98.76,73.27,144.06,18.76,33.55,37.86,65.89,56.91,98.46,6.17,10.45,12.29,21.07,18.36,31.84,10.73,18.54,21.34,37.48,31.8,56.9,2.55,4.13,5.11,8.29,7.66,12.43,1.92,1.48,3.84,2.96,5.76,4.43,1.02-5.81,2.03-11.62,3.05-17.44,1.41-11,2.81-21.97,4.22-32.97-.83-23.58-1.66-47.15-2.5-70.73-1.04-28.59-2.06-57.17-3.1-85.76-2.67-45.17-5.35-90.35-8.04-135.54-4.06-51.79-8.13-103.55-12.19-155.34-6.68-73.43-13.34-146.87-20.02-220.3-8.86-99.31-18.9-197.9-30.11-295.76-2.95-38.91-7.78-76.29-14.48-112.14-.87-19.94-4.44-35.35-10.71-46.25-3.92-15.21-6.28-13.91-7.08,3.91-5.66,28.36-5.75,58.83-.28,91.45l-.03.03Z"/>
  <path class="cls-1" d="M1467.81,4611.38c-3-29.76-9.58-51.51-19.73-65.22-4.94-10.37-9.32-21.95-13.17-34.72-4.38-13.8-8.46-28.09-12.23-42.87-3.86-15.08-7.39-30.59-10.61-46.53,3.76,20.42,7.52,40.81,11.28,61.23-6.71-37.08-13.42-74.19-20.13-111.27,3.46,20.82,6.93,41.64,10.39,62.48-4.7-29.56-9.4-59.15-14.1-88.72,3.29,21.05,6.58,42.09,9.87,63.14-2.71-17.54-5.05-35.33-7.05-53.42-2.04-18.54-3.71-37.26-5-56.17,6.88,247.13,13.78,494.27,20.66,741.38,24.24-410.66,48.47-821.3,72.71-1231.96,1.42-7.74,2.35-15.81,2.8-24.18,1.07-14.36,1.04-28.66.98-43.22-.07-20.39-.49-40.29-2.34-60.31-1.68-18.14-3.89-36.05-6.49-53.54-7.65-51.44-18.42-100.07-29.99-146.87-6.1-24.68-12.4-48.93-19.36-72.23-8.49-28.44-17.31-56.3-26.61-83.2-34.36-99.44-74.54-186.4-117.71-262.94-43.77-77.62-90.58-144.91-138.23-207.62-44.54-58.65-89.72-114.37-134.52-171.87-44.8-57.5-92.12-119.98-137.26-183.95-26.4-37.41-52.5-75.89-78.65-114.27-23.8-34.95-48-68.12-72.67-99.39-20.13-25.53-40.45-50.23-60.96-73.93-20.52-23.7-40.96-46.2-61.42-69.4,3.45,4.01,6.89,8.02,10.35,12.03-11.35-13.28-22.66-26.63-33.71-41.41-8.94-11.95-17.44-25-25.73-39.44,45.36,235.16,90.73,470.32,136.09,705.5-30.67-391.62-61.34-783.22-92-1174.84-1.26,23.7-2.52,47.4-3.78,71.1,2.16-32.92,4.52-65.84,5.74-99.06.52-13.88.26-27.36-.58-41.16-1.31-21.37-3.97-42.02-6.88-62.41-2.5-17.49-5.42-34.4-8.8-51.01-5.14-25.23-11.76-48.96-18.54-71.73-8.17-27.43-16.97-53.87-26.39-78.87-8.65-22.92-17.59-45.22-26.79-66.84-13.63-32.04-27.58-63.46-42.07-93.2-54.8-112.42-117.35-201.03-183.29-269.58-29.55-30.72-59.77-57.52-90.53-80.35-29.42-21.82-59.28-39.39-89.36-55.04-4.67,30.49-3,60.53,4.99,90.09,12.38,70.18,25.73,139.25,40.05,207.22,17.14,85.74,35.01,170.59,53.61,254.57,11.24,61.38,25.76,117.53,43.6,168.36,15.61,24.43,31.25,48.91,46.19,75.69,16.91,30.29,33.01,63.51,47.96,99.31,32.41,77.59,59.59,168.09,79.69,267.13,5.1,25.18,9.75,50.99,14.03,77.04,2.03,13,4.07,26.01,6.11,38.98,1.97,13.18,3.94,26.38,5.91,39.56,2.88,21.6,5.27,43.77,7.42,65.84,1.97,20.19,3.71,40.59,5.1,61.06,4.63,68.3,4.73,138.32,11.82,205.62,1.6,15.16,3.59,29.94,5.66,44.75,2.07,14.83,4.31,29.31,7.01,43.54,5.05,26.71,11.32,51.79,18.25,75.89,7.4,25.73,15.46,50.31,23.47,74.91,5.48,16.86,10.92,33.77,16.49,50.46,2.59,10.97,5.98,19.97,10.17,27.03,2.06,4.23,4.24,8.07,6.53,11.55,17.51,28.66,37.71,43.67,57.81,57.93,9.68,6.86,19.35,13.8,28.86,21.92,11.03,9.4,21.71,20.57,32.3,32.55-3.44-4.08-6.87-8.17-10.32-12.25,22.81,27.78,44.92,58.6,67.25,88.57,10.91,14.63,21.89,28.91,32.81,43.42,17.09,22.65,34.01,46.02,50.77,70.05,36.3,52.01,71.82,107.01,107.06,163.08,36.97,58.83,73.84,118.03,110.17,179.14,36.19,60.88,71.81,124.04,105.61,192.57,11.64,23.6,23.09,47.88,34.22,72.91,14.34,32.24,28.35,65.57,41.15,101.44,20.53,57.52,38.04,121.69,50.11,191.99,11.46,66.74,17.71,137.72,19.26,209.8.67,31.24.52,62.46-.34,93.68-.52,17.39-1.15,34.78-1.92,52.11-.43,18.74-1.3,37.36-2.62,55.85-1.68,23.75-4.14,47.18-6.8,70.38-2.94,25.71-6.3,51.21-8.47,77.39-1.01,11.83-1.73,23.75-2.15,35.78-.46,15.96-.53,31.92-.22,47.93.23,18.14.87,35.85,2.58,53.62,4.75,49.53,15.31,94.63,26.71,136.85,14.11,52.26,29.98,101.54,46.05,150.35,6.01,17.29,11.59,35.35,16.73,54.19,3.13,10,6.26,20.02,9.39,30.01,12.21,38.23,25.55,74.49,39.47,109.09,19.75,49.11,40.97,94.6,62.75,138.37,12.57,25.25,25.29,50.03,37.91,75.11,4.98,10.32,10.12,20.17,15.41,29.51,5.58,9.8,10.49,21.3,14.73,34.5,7.9,23.25,12.55,19.92,13.92-9.97-1.2-64.51-6.3-127.43-15.3-188.76-13.42-118.58-27.87-236.39-43.38-353.46-6.29-63.26-16.22-122.71-29.76-178.39v.02Z"/>
  <path class="cls-1" d="M1360.49,3876.17c-.56-36.85-5.29-69.02-14.2-96.51,5.95,29.16,11.91,58.35,17.86,87.51-10.24-51.49-20.49-102.97-30.73-154.46,5.52,30.09,11.02,60.15,16.54,90.24-2.83-15.88-5.33-32.07-7.5-48.53,7.72,65.07,15.45,130.13,23.16,195.2-10.32-91.12-20.63-182.22-30.94-273.34,5.41,66.32,10.82,132.66,16.23,198.98-6.31-84.66-12.62-169.34-18.93-254,10.98,258.61,21.97,517.22,32.95,775.83-11.31-329.81-22.62-659.65-33.93-989.46-10.03,356.44-20.04,712.89-30.07,1069.33,29.8-412.49,59.59-824.98,89.39-1237.47-65.74,221.2-131.5,442.41-197.24,663.61,99.5-224.64,181.61-477.36,246.34-758.19,1.81-7.02,3.41-14.31,4.8-21.87,2.69-13.75,4.21-28.44,4.92-43.54.91-19.54.35-39.28-.74-58.7-1.38-24.58-3.72-48.93-6.94-72.48-4-29.29-8.85-57.7-14.32-85.56-6.36-32.42-13.32-64.46-21.12-94.98-6.7-26.23-13.83-51.74-21.29-76.74-5.56-18.26-11.27-36.23-17.15-53.92-5.77-18.14-11.85-35.65-18.23-52.59-19.56-52.36-40.54-101.34-62.87-146.74-12.71-25.86-25.77-50.73-39.26-74.19-13.49-23.45-27.77-45.17-42.15-65.97-55.81-80.75-114.65-148.37-173.5-215.04-53.56-60.68-107.11-121.34-159.76-186.63-28.53-35.4-56.79-72.21-84.76-110.14-29.75-40.34-58.99-82.55-88.28-124.74-26.58-38.28-53.65-74.44-81.39-107.68-23.29-27.91-46.86-54.34-70.54-80.22-15.72-17.19-31.43-34.32-46.71-53.67-7.08-8.97-14.11-18.26-20.82-28.76l-6.95-11.47c-4.05-7.02-7.85-14.81-11.37-23.33,9.77,22.97,19.53,45.92,29.3,68.9l-4.53-11.55c91.32,286.14,182.64,572.26,273.95,858.4-69.82-451.12-139.64-902.25-209.46-1353.37-2.74,42.19-5.48,84.36-8.22,126.55,5.23-40.66,10.44-81.35,15.67-122.01,1.08-8.87,1.61-17.89,1.59-27.06.33-18.41.9-36.85.61-55.27-.63-39.94-7.21-77.52-14.65-112.64-5.84-27.53-13.2-53.42-20.76-78.29-9.11-29.99-18.93-58.83-29.42-86.11-9.64-25.08-19.61-49.48-29.89-72.98-5.62-12.43-11.25-24.88-16.87-37.31-9.67-22.42-19.81-43.49-30.42-63.21-6.86-14.06-14.05-27.13-21.53-39.21-7.26-13-14.72-25.25-22.39-36.78-18.85-29.59-38.22-57.52-58.2-82.53-34.48-43.14-70-80.67-106.53-112.49-32.98-28.74-66.58-53.06-100.64-73.13C76.48,26.86,43.99,12.3,11.3,0c-2.29,45.8,2.18,88.92,13.42,129.4,28.36,148.47,58.08,295.31,89.16,440.58,30.33,146.19,61.99,290.65,95,433.39,6.94,45.77,18.75,79.87,35.42,102.35-52.06,117.68-70.35,238.34-54.87,362.01.62,6.56,1.86,12.5,3.71,17.79,3.78,13.5,8.85,25.48,13.33,37.53,7.72,20.74,15.24,41.89,22.28,64.04,7.9,24.83,15.43,50.31,22.81,76.04,21.39,74.64,41.86,150.68,64.62,222.93,7.12,22.8,14.58,44.92,22.37,66.39,7.73,22.47,15.86,44.12,24.36,64.94,8.47,21.37,17.38,41.64,26.71,60.78,8.98,19.82,18.4,38.36,28.26,55.62,19.55,33.87,40.08,64.69,61.82,89.79,7.39,8.14,14.77,16.26,22.17,24.4,11.28,11.88,22.79,22.3,34.5,31.32,11.81,10.2,23.82,18.79,36.03,25.76,5.59,2.15,11.18,4.31,16.75,6.46,15.22,5.09,30.65,5.86,45.98,4.89,16.89-1.1,33.83-6.61,50.53-12.05,10.02-3.26,20.08-7.19,30.17-8.97,8.28-1.45,16.69-2.53,24.97,0l7.49,2.78c4.84,2.33,9.55,5.69,14.13,10.1-4.7-4.94-9.38-9.85-14.08-14.78,4.63,4.71,9.11,10.22,13.41,16.54,2.21,3.46,4.42,6.91,6.63,10.35,7.09,11.52,13.79,25.15,20.2,38.76,7.43,15.81,14.59,32.45,21.68,49.13,8.33,19.59,16.63,39.31,24.75,59.4,19.7,48.73,38.65,99.24,56.91,151.15,8.73,24.8,17.32,49.86,25.83,75.11,5.4,15.88,10.7,31.97,15.88,48.25,7.44,22.47,14.55,45.55,21.31,69.25-7.61-27.51-15.23-54.99-22.84-82.5,10.7,38.83,21.41,77.67,32.11,116.5-7.4-27.81-14.81-55.65-22.22-83.46,14.96,60.98,29.93,121.96,44.89,182.95-6.67-28.84-13.33-57.7-20-86.54,4.56,20.07,8.75,40.56,12.59,61.48,3.51,19.17,6.64,38.66,9.36,58.55-8.59-64.56-17.2-129.13-25.8-193.69,10.67,82.83,21.35,165.66,32.02,248.49-6.97-65.62-13.94-131.26-20.91-196.88,8.06,82.35,16.11,164.68,24.17,247.03-17.58-257.28-35.18-514.54-52.76-771.82-67.15,443.21-46.57,768.66,61.73,976.31,4.25,8.77,8.14,18.36,11.66,28.79,8.71,24.25,15.35,51.29,19.94,81.5,4.47,29.44,6.86,61.06,8.51,92.02,2.05,38.53,2.79,77.42,3.77,116.18,1.62,63.84,3.25,127.95,7.63,191.14,3.82,54.92,8.87,109.14,16.02,162.15,3.78,28.64,8.17,56.7,13.18,84.16,4.79,29.04,10.2,57.4,16.22,85.11,8.13,37.78,17.19,74.21,27.17,109.31,7.45,26.71,15.51,52.26,24.19,76.69,8.34,25.35,17.23,49.51,26.68,72.51,12.71,31.47,25.99,61.48,39.83,90.02,6.77,13.6,13.54,27.23,20.32,40.84,13.46,29.91,27.44,58.3,41.96,85.16,38.38,71.35,80,131.31,122.22,188.31,17.28,23.33,34.65,46.3,51.8,70.23,4.2,5.89,8.4,11.8,12.59,17.69,7.16,10.37,14.38,20.47,21.67,30.29,4.4,8.22,9.25,11.42,14.58,9.6.68-6.36,1.37-12.75,2.05-19.12,6.3-61.28,2.98-122.24-9.96-182.89-18.99-155.18-38.03-310.35-57.08-465.51-12.8-98.89-26.65-196.9-41.52-294.09-4.67-44.92-12.27-86.24-22.78-123.97-2.42-18.29-7.45-29.56-15.13-33.8-6.65,22.75-7.42,48.05-2.32,75.94v.08Z"/>
  <path class="cls-1" d="M1409.04,4936.63c-4.88-46.48-9.78-92.98-14.66-139.45-1.45-26.63-5.41-50.23-11.88-70.85-1.84-9.12-4.47-16.54-7.91-22.22-3.49-7.39-7.03-14.66-10.6-21.85,2.73,5.69,5.46,11.35,8.19,17.04l-6.54-19.04c-3.29-10.4-6.37-21.15-9.24-32.22-4.99-18.54-9.65-37.73-13.6-57.7-3.27-16.49-6.24-33.27-8.94-50.36-4.21-26.68-7.04-54.07-9.73-81.8,1.51,19.32,3.04,38.63,4.55,57.95-2.24-28.91-4.47-57.82-6.71-86.71l4,58.15c-2.18-39.23-4.35-78.47-6.53-117.7l2.83,58.53c-.85-20.47-1.28-40.99-1.28-61.58s.43-42.47,1.29-63.61c-16.08,189.43-32.17,378.87-48.25,568.3,48.42-296.39,96.83-592.81,145.24-889.2-3.82,18.19-7.64,36.38-11.46,54.57,5.88-24.4,11.51-49.21,16.13-75.16,2.38-13.35,3.84-27.73,4.18-42.32.37-15.66-.04-31.42-.53-47.03-.65-20.62-2.18-40.39-4.4-60.31-6.16-55.14-16.49-107.21-27.91-156.99-7.07-30.82-14.58-60.71-23.01-89.49-6.65-22.67-13.51-44.95-20.62-66.77-18.29-56.12-38.87-108.36-60.62-156.69-22.48-49.96-46.51-96.26-71.54-138.55-48.14-81.33-99.43-150.35-151.56-215.47-51.18-63.94-102.78-125.92-153.64-191.31-54.2-69.68-107.69-142.46-160.35-218.72-14.55-21.07-28.94-42.77-43.59-63.41-10.82-15.26-21.74-30.17-32.73-44.75-24.37-32.32-49.3-62.33-74.42-91.12-20.51-23.5-41.25-45.7-61.78-69.12-15.62-17.81-31.01-36.45-45.93-57.55l9.18,14.01c-5.44-8.37-10.9-16.74-16.34-25.1l9.17,14.08c-5.99-10.17-12.16-20.44-17.27-33.27l-4.28-11.35c-2.48-7.17-4.57-14.91-6.28-23.28,3.37,18.14,6.74,36.28,10.11,54.42-4.46-26.21-8.92-52.41-13.36-78.62,17.24,210.73,34.48,421.43,51.74,632.17-11.32-256.13-22.63-512.28-33.95-768.41-2.35,116.03-4.71,232.05-7.06,348.08,3.09-67.35,6.18-134.72,9.27-202.06-10.86,151.28-21.71,302.58-32.58,453.86,13.71-272.36,38.49-537.24,74.35-794.64.92-5.81,1.64-11.78,2.13-17.91,2.24-22.37,4.3-44.82,6.18-67.4l1.2-19.14c.69-17.86.03-35.68-1.37-53.24-1.64-20.49-4.29-41.24-7.38-60.68-2.89-18.19-6.27-35.73-10.05-52.94-5.74-26.13-12.91-50.63-20.25-74.24-8.84-28.39-18.37-55.39-28.4-81.35-11.89-30.77-24.54-59.75-37.17-88.74-55.63-127.65-121.92-226.66-191.94-301.33-33.36-35.58-67.82-66.12-102.83-90.87-12.72-8.99-25.49-17.41-38.34-25.33-17.42-10.72-35-19.64-52.6-28.41-6.65,25.45-7.2,53.19-1.66,83.2,10.16,94.73,21.77,188.41,34.85,281.03,12.25,93.28,25.95,185.33,41.07,276.1,2.92,32.07,10.19,53.59,21.79,64.54,12.28,11.78,24.54,23.65,36.7,36.18,16.35,16.86,32.25,35.78,47.73,56.87,14.18,19.34,27.85,40.41,41.05,63.49,6.86,11.68,13.53,24,19.98,37,8.8,17.51,17.26,35.93,25.38,55.29-2.5-6.21-5-12.43-7.51-18.64,6.49,16.21,12.98,32.42,19.47,48.66-2.43-6.39-4.84-12.8-7.27-19.19,6.21,16.89,12.43,33.77,18.64,50.66l-7.02-19.74c5.91,17.51,11.81,35.05,17.72,52.56l-6.76-20.27c7.03,21.85,13.59,44.5,19.67,67.95,2.9,11.73,5.81,23.43,8.71,35.15,7.5,30.99,14.32,63.26,19.86,96.58,4.44,26.68,8.17,54.37,10.46,82.65,1.88,23.23,2.89,47.18,3.2,70.83.54,40.89-.51,81.83.24,122.69.31,17.06.84,34.05,1.66,51.01,1.8,37.08,5.05,73.58,8.97,109.66,2.64,24.35,5.57,48.5,8.33,72.78,1.52,13.2,2.99,26.46,4.38,39.74,4.01,36.15,10.76,68.2,20.25,96.18,4.79,14.88,9.74,29.59,15.05,43.39,6.12,15.88,13.17,29.76,20.25,43.04,13.69,25.63,28.74,47.05,43.72,67.9,14.84,20.62,29.83,40.61,44.84,60.48,17.45,23.1,34.97,45.95,52.71,67.75,21.57,26.51,43.39,51.71,64.82,78.92,26.72,33.92,52.93,70,78.8,107.53,16.67,24.18,33.08,49.36,49.54,74.39,16.64,25.33,33.33,50.46,50.05,75.56,58.35,87.59,117.26,173.1,175.05,262.87,13.02,20.22,26.01,40.59,38.88,61.41,12.74,20.59,25.52,41.19,37.91,63.01,10.07,17.74,19.93,36.03,29.48,55.34,5.6,11.05,11.03,22.57,16.31,34.52,6.83,15.33,13.4,31.29,19.69,47.88-2.38-6.49-4.76-12.98-7.14-19.49,5.36,14.71,10.72,29.44,16.09,44.15-2.32-6.61-4.64-13.23-6.97-19.87,5.09,15.01,10.19,29.99,15.28,45-2.26-6.74-4.52-13.5-6.78-20.24,5.37,16.34,10.41,33.22,15.12,50.68,4.54,16.84,8.73,34.17,12.57,51.99,7.3,33.95,13.27,69.58,17.71,106.28,4.22,34.8,6.98,70.45,8.47,106.53,1.48,35.95,2.54,72.01.22,107.91-1.79,27.66-5.35,54.37-9.9,80.05-2.79,15.73-5.86,31.17-8.69,46.88-3.45,19.14-6.52,38.66-8.51,59.03s-3.02,42.92-3.14,64.69c-.31,53.49,3.77,107.18,8.98,158.94,2.08,21.22,4.57,42.19,7.45,62.86,2.71,23,5.72,45.75,9.08,68.25,7.32,49.41,16.1,97.46,26.27,143.84,18.93,86.21,42.6,165.78,69.4,238.69,11.89,32.37,24.44,63.19,37.04,93.93,5.58,13.55,11.15,27.16,16.7,40.74,6.76,14.96,11.68,32.97,14.78,54.09-2.7-19.07-5.38-38.13-8.08-57.2,3.64,26.98,7.28,53.97,10.92,80.95.39,30.79,5.66,53.11,15.8,66.99,8.47-19.32,11.37-44.05,8.72-74.16-1.85-89.34-5.22-178.39-10.1-267.1-4.03-88.97-9.56-177.36-16.6-265.2v.08Z"/>
  <path class="cls-1" d="M1395.03,4259.75c-1.16,10.95-2.32,21.92-3.48,32.87,1.43-10.17,2.85-20.34,4.28-30.52-1.45,4.23-2.9,8.47-4.35,12.7l9.86,22.47c-5.45-12.45-10.91-24.88-16.36-37.33,3.3,7.64,6.59,15.31,9.89,22.95-4.55-12.63-8.71-25.98-12.49-40.01-2.99-10.77-5.71-21.9-8.19-33.4-2.69-11.45-5.12-23.23-7.3-35.33-3.03-16.41-5.71-33.17-8.05-50.23,3.5,27.46,7.01,54.94,10.52,82.4-6.28-54.47-12.56-108.94-18.84-163.4,2.7,28.04,5.39,56.07,8.09,84.11-3.26-37.48-6.52-74.96-9.78-112.44,2.38,28.21,4.76,56.42,7.14,84.63-2.75-37.86-5.51-75.69-8.25-113.55,2.04,28.36,4.08,56.75,6.13,85.11-1.62-29.51-3.02-58.85-3.11-88.69.03-10.2.07-20.39.1-30.59.28-20.95.94-41.82,2-62.61-9.29,141.41-18.59,282.84-27.88,424.24,11.52-155.51,23.05-311.02,34.57-466.53-13.88,138.82-27.77,277.65-41.65,416.47,16.55-150.85,33.09-301.73,49.64-452.58-38.64,269.26-77.28,538.49-115.92,807.74,67.43-353.86,134.87-707.7,202.3-1061.57,1.54-13.55,2.76-27.28,3.65-41.16,1.19-17.31,1.2-35.15.23-52.56-2.54-45.3-9.12-88.34-17-129.68-5.69-29.84-12.05-59-19.04-87.21-6.35-25.58-12.91-51.09-19.97-75.56-15.65-54.22-33.38-105.25-52.24-153.11-40.54-102.82-87.33-189.61-136.84-265.7-48.42-74.41-99.26-139.18-150.2-202.76-47.72-59.55-95.52-118.76-142.69-180.82-53.88-70.88-106.98-145.19-159.32-222.46-11.5-16.96-22.93-34.17-34.51-50.83-13.26-19.09-26.78-37.13-40.38-54.77-21.77-28.21-43.89-54.82-66.19-80.52-20.34-23.48-40.94-45.7-61.3-69.12-15.58-17.94-30.91-36.73-45.66-58.4l11.48,18.26-7.03-11.37c55.31,281.61,110.63,563.24,165.94,844.85-52.51-367.57-105.04-735.14-157.55-1102.71,1.95,87.56,3.9,175.15,5.85,262.72-.08-73.78-.18-147.54-.26-221.33-4.15,142.83-8.29,285.64-12.43,428.48,6.45-162.02,12.9-324.07,19.36-486.1-10.59,140.7-21.18,281.41-31.77,422.11,12.64-152.13,25.28-304.28,37.92-456.41-14.68,138.37-29.36,276.75-44.05,415.12,16.65-149.42,33.3-298.85,49.94-448.27,7.22-47,12.59-95.03,16.11-144.06.63-6.26.93-12.65.9-19.09.39-10.35.26-20.67-.39-30.97-.63-18.64-1.18-37.53-2.9-55.82-2.08-22.22-5.71-43.34-9.85-63.74-10.08-49.71-23.91-94.63-38.81-136.49-10.52-29.59-21.82-57.5-33.46-84.58-4.99-11.95-10.11-23.53-15.38-34.72-8.83-19.47-17.73-38.78-26.69-57.9-12.88-26.16-26.16-51.11-39.76-75.04-16.92-29.76-34.71-56.82-52.76-82.4-31.22-44.27-63.71-82.7-97.04-116.75-17.21-17.56-34.76-33.3-52.41-48.05-16.59-13.88-33.26-27.13-50.15-38.68-12.55-8.57-25.15-16.64-37.81-24.2-17.24-10.3-34.64-18.84-52.06-27.16-4.46,39.16-2.23,77.54,6.69,115.17,14.15,93.78,29.31,186.63,45.46,278.5,19.41,115.5,39.56,230.25,60.49,344.22,12.68,81.68,28.87,158.87,48.57,231.55,9.9,29.91,19.75,59.93,28.8,91.4,9.73,33.87,18.71,69.12,26.71,105.55,7.26,33.07,13.93,66.87,20.01,101.29,9.58,54.27,17.48,109.89,25.4,165.68-1.48-10.55-2.97-21.12-4.45-31.67,2.65,20.02,5.32,40.04,7.97,60.05,1.34,9.82,2.67,19.67,4.01,29.49,2.48,19.72,4.64,39.69,7.05,59.45,3.76,30.92,7.46,61.86,11.3,92.73,4.6,37.16,9.63,74.03,15.69,109.96,6.26,37.16,13.56,73.41,21.94,108.03,5.83,24.13,12.22,47.38,19.03,69.93,5.65,19.52,11.92,37.83,18.81,54.97,6.14,19.34,12.84,37.41,20.08,54.27,15.32,37,31.74,71.18,48.85,103.2,6.93,13.28,14.05,25.91,21.36,37.91,3.66,4.99,7.32,9.97,10.98,14.96,7.06,9.04,14.36,17.29,21.75,24.63,14.96,14.88,30.51,25.96,46.2,35.45,24.02,14.53,48.35,26.16,71.33,49.08,26.36,26.28,50.34,64.69,74.37,101.27,13.44,20.44,27,40.44,40.47,60.78,18.26,27.61,36.31,56.05,54.16,85.13,44.73,72.83,88.16,150.05,130.52,230.67-3.58-6.97-7.15-13.93-10.74-20.92,8.16,15.88,16.31,31.79,24.47,47.68-3.56-7.04-7.11-14.08-10.67-21.12,7.96,15.86,15.93,31.72,23.89,47.55-3.54-7.12-7.06-14.23-10.6-21.32,7.77,15.83,15.52,31.67,23.29,47.5-3.5-7.19-7.01-14.38-10.51-21.57,7.56,15.81,15.12,31.62,22.67,47.43-3.47-7.27-6.95-14.56-10.43-21.82,28.14,60.78,55.34,124.14,78.96,195.5,9.66,29.19,18.77,59.63,27.01,91.27,8.02,30.79,15.18,62.84,20.82,96.63,7.78,46.6,12.34,95.48,13.77,145.59.57,19.94.71,39.91.75,59.9.06,32.44.18,64.89.26,97.34l.02-33.17c-.2,21.15-.24,42.32-.11,63.46.38,9.24.64,18.54.78,27.81.33,17.46.35,34.93.25,52.39-.24,42.54-.66,84.96.59,127.45,1.91,64.74,7.2,128.73,15.81,190.26,9.87,70.5,23.96,137.15,40.71,199.48,8.61,31.99,17.9,62.66,27.82,92.35,5.25,16.03,10.69,31.64,16.34,46.88,7.93,21.47,15.99,42.67,24.16,63.59,4.55,13,9.1,26.01,13.65,38.98,8.94,24.58,18.2,48.45,27.77,71.58,13.47,32.27,27.37,63.41,41.78,93.23,25.24,52.24,51.83,100.37,78.64,147.74,11.38,20.12,22.79,40.11,34.13,60.36,6.48,11.73,12.99,23.35,19.54,34.88,3.9,11.85,8.47,15.08,13.74,9.67,1.4-10.37,2.8-20.77,4.21-31.14,2.43-36.25,2.16-72.61-.81-109.04-1.6-79.87-7.12-158.32-16.57-235.36-14.27-148.87-29.6-297.09-45.99-444.69-6.67-78.72-17.07-154.23-31.2-226.51-8.15-30.59-12.85-27.76-14.09,8.52v.05Z"/>
  <path class="cls-1" d="M1390.19,5609.96c-3.79-135.29-10.67-269.48-20.63-402.57-3.69-51.29-7.81-102.37-12.36-153.28-2.82-23-6.4-45.22-10.74-66.69-2.78-14.61-5.6-29.14-8.48-43.62-4.62-25.18-8.92-50.78-11.83-77.47l-2.65-26.43c-1.58-18.06-2.69-36.3-3.34-54.69.48,16.66.94,33.32,1.42,50.01-.69-26.11-1.39-52.24-2.08-78.34.37,16.66.76,33.32,1.13,50.01-.08-9.67-.18-19.32-.26-28.99-.5,23.63-1,47.25-1.49,70.88,1.04-43.52,2.07-87.04,3.11-130.56-.8,23.58-1.61,47.18-2.41,70.75l1.42-30.64c-1.5,23.4-3.01,46.83-4.52,70.23l8.93-129.73c-1.88,23.43-3.75,46.85-5.62,70.3,2.88-33.17,5.75-66.37,8.64-99.54-2.07,23.45-4.16,46.9-6.23,70.38.98-9.7,1.97-19.42,2.95-29.11-2.22,16.16-4.45,32.29-6.67,48.45,4.48-19.79,9.07-39.36,14.38-57.95,3.95-13.83,8.34-26.41,13.12-38.58-2.92,6.54-5.84,13.1-8.76,19.64l12.52-27.78c-3.01,6.44-6.02,12.88-9.03,19.34,3.73-7.39,7.34-13.8,11.65-19.14,4.31-5.34,8.46-9.04,12.78-12.88,4.63-4.11,9.34-7.92,13.81-13l4.84-5.81c7.41-11.65,14.17-25.23,20.28-40.71,10.34-19.79,18.17-44.57,23.52-74.36,9.24-38.48,17.75-77.87,25.54-118.16,6.84-31.64,12.71-64.34,17.59-98.09l1.18-20.9c3.85-79-6.29-157.77-20.49-228.12-4.47-22.22-9.4-43.79-14.83-64.69-5.15-21.67-10.8-42.59-16.94-62.74-12.24-41.26-25.19-81.3-39.33-118.91-26.57-70.7-55.6-135.14-86.89-193.49-14.22-26.53-28.82-51.76-43.75-75.94-17.48-28.31-35.62-54.24-53.9-79.42-35.41-48.76-72.03-92.42-108.76-134.92-32.1-37.13-64.29-73.78-96.58-109.96-31.31-35.08-62.5-70.75-93.46-107.63-34.68-41.34-68.99-84.58-102.88-129.58-17.78-23.6-35.48-47.68-53.02-72.28-17.8-24.95-35.39-50.83-53.25-75.59-28.07-38.86-56.66-75.11-85.89-108.61-23.84-27.33-48-52.84-72.12-78.72-10.76-11.55-21.52-23.15-32.14-35.48-8.94-10.37-17.97-21.1-26.48-33.42-6.99-10.15-14.06-20.72-20.11-34l-5.14-11.9c-3.02-7.57-5.57-15.96-7.67-25.15l5.98,23.73c-2.03-8.44-3.41-17.49-4.16-27.08,1.21,16.94,2.44,33.87,3.65,50.78-.29-4.81-.58-9.65-.87-14.46.66,24.23,1.33,48.43,1.99,72.66l-.29-15.18-2.19,123.37c1.2-27.36,2.39-54.72,3.6-82.05-.92,16.76-1.85,33.52-2.77,50.28.71-8.17,1.81-15.98,3.32-23.45,1.34-8.14,3.01-15.86,5.02-23.2l-5.74,23.2c2.69-10.85,5.64-21.27,8.86-31.24,3.42-10.62,6.96-21.02,10.59-31.24,3.73-10.47,7.4-21.07,11.02-31.77,4.54-14.58,8.76-29.71,12.66-45.35,4.3-18.21,7.13-37.53,10.86-56.37,4.03-20.44,9.06-39.31,14.3-58.05,4.61-16.54,9.35-32.95,13.2-50.63,5.52-25.4,10.58-51.44,15.16-77.89,7.97-48.08,14.91-97.03,20.82-146.84,2.73-23.48,4.99-47.25,6.78-71.28.98-13.93,1.22-27.96.72-42.04-.73-18.54-2.15-36.78-4.28-54.69-1.3-19.52-3.91-37.98-7.82-55.39-4.77-22.97-10.32-44.82-16.63-65.54-16.15-54.22-35.9-102.3-56.09-147.64-9.32-20.47-18.71-40.71-28.2-60.73-10.32-22.62-21.06-44.05-32.21-64.26-29.43-54.27-60.95-101.57-93.65-143.46-26.06-33.4-52.92-63.96-80.25-90.82-23.62-23.23-47.5-45.07-71.8-63.71-53.27-40.86-108.14-67.2-163.36-86.74-6.72,6.86-9.91,19.62-9.58,38.28.63,42.09,2.77,83.76,6.42,125.02,2.82,41.61,7.1,82.33,12.86,122.09,2.5,17.69,7.39,26.76,14.69,27.23,28.9,9.95,57.73,21.65,86.08,38.48,13.13,7.79,26.19,16.29,39.16,25.51,21.91,15.61,43.11,35.38,64.35,55.57l-7.34-7.57c9.88,10.25,19.76,20.47,29.64,30.72-2.43-2.61-4.86-5.21-7.29-7.84l29.67,33.17-7.24-8.12c15.17,17.66,30.06,36.65,44.65,56.97,14.92,20.77,29.43,43.02,43.57,66.77,14.46,24.33,28.4,50.28,41.81,77.89,13.59,27.99,26.6,57.45,39.04,88.39,20.07,48.63,39.8,99.14,55.8,156.16,6.44,22.32,11.97,45.9,16.6,70.7,3.63,19.47,6.15,39.74,7.54,60.81-.73-9.5-1.46-19.02-2.19-28.51,1.02,12.3,1.3,24.65.86,37.03.01,10.55-.53,20.97-1.62,31.22,1.52-17.96,3.04-35.95,4.56-53.92-.59,5.94-1.19,11.88-1.78,17.81,3.14-24.85,6.29-49.68,9.43-74.54-1.57,10.65-3.13,21.3-4.7,31.94,6.95-40.49,13.9-80.97,20.85-121.46-2.03,10.55-4.48,20.49-7.36,29.81-3.07,9.92-6.36,19.39-9.86,28.41l7.94-20.57c-9.5,23.38-19.35,45.95-27.93,71.35-6.2,18.34-12.25,37.28-17.51,57.3-4.85,18.49-9.69,37-14.59,55.44l6.49-21.97c-6.74,16.31-13.62,32.04-20.6,47.78-6.58,14.83-13.5,29.74-19.45,46.1-3.42,10.22-6.84,20.47-10.25,30.69-3.41,12.73-6.46,25.93-9.15,39.64l-2.78,15.98c-1.82,13.45-2.73,27.28-2.73,41.51-1.6,32.5-1.99,65.14-1.18,97.94l.31,16.51c.25,41.54,2,82.65,5.27,123.37l2.32,16.29c1.88,9.45,3.96,18.59,6.25,27.48,2.08,9.42,4.52,18.26,7.31,26.56,4.95,14.76,11.18,28.16,17.5,39.38,14.02,24.83,29.49,44.25,45.11,62.36,19.78,22.95,39.94,43.94,59.98,65.52,27.72,29.84,55.27,60.81,82.1,95.13,30.84,39.44,60.66,82.98,90.81,125.37,60.82,85.51,122.94,165.28,186.2,239.74,29.56,34.8,59.34,68.5,89.01,102.75,33.88,39.11,67.78,78.57,100.99,120.84,31.6,40.21,62.66,82.75,92.3,131.01,31.32,51.01,60.54,108.41,87.56,172.17,7.52,17.71,14.73,36.08,21.65,55.12,7.13,18.62,13.94,37.88,20.46,57.8,6.6,19.64,12.85,39.94,18.73,60.86,6.11,20.39,11.83,41.44,17.15,63.09,3.39,14.41,6.78,28.81,10.16,43.19,6.49,29.36,12.3,59.48,17.44,90.37,2.12,15.01,4.24,30.01,6.36,45.02,3.31,26.68,5.3,53.94,5.96,81.73-.31-10.52-.62-21.07-.94-31.59.74,21.07.23,41.94-1.52,62.61,2.45-19.79,4.88-39.61,7.33-59.4-5.82,39.26-11.64,78.54-17.46,117.8,8.54-46.02,17.08-92.05,25.62-138.07-6.61,31.27-13.22,62.53-19.83,93.8,11.68-52.01,23.38-104.05,35.06-156.06-2.19,8.29-4.39,16.59-6.57,24.88,5.03-16.74,10.06-33.47,15.09-50.21-2.51,7.44-5.42,13.75-8.75,18.99l10.68-18.69c-3.69,5.31-7.34,10.3-11.31,14.36-4.35,4.46-8.9,8.04-13.39,11.63-11.54,9.14-23.14,17.49-34.27,29.36-10.73,11.45-20.8,25.86-30.09,43.17-3.89,6.79-7.46,14.41-10.75,22.9-3.82,7.82-7.36,16.29-10.62,25.43-2.51,6.36-4.89,13.03-7.14,19.97-6.66,18.11-11.74,38.81-15.24,62.06-2.07,16.16-4.15,32.32-6.22,48.45-2.27,20.52-4.55,41.04-6.82,61.58-1.68,23.43-3.36,46.83-5.05,70.25-1.18,21.15-2.36,42.29-3.56,63.41-.8,23.58-1.61,47.18-2.41,70.75.04,20.74.07,41.49.11,62.26.27,26.81.69,53.67,2.22,80.25,2.52,43.87,7.31,86.84,14.06,127.98,6.79,41.41,15.71,80.35,24.61,119.28-1.79-7.97-3.6-15.96-5.39-23.93,5,19.67,8.88,40.54,11.62,62.61,7.92,48.43,13.14,98.76,15.65,151-1.22-16.71-2.45-33.42-3.68-50.13,4.55,77.99,9.11,155.99,13.66,233.98-.01,10.32,1.32,19.42,4,27.26,3.9,5.04,8.08,6.86,12.51,5.46,4.48.03,8.52-3.06,12.13-9.24,2.25-8.62,3.09-18.04,2.54-28.26v-.07Z"/>
  <path class="cls-1" d="M1367.67,5392.34c-3-167.71-11.68-333.37-26.06-497-1.89-14.33-3.77-28.64-5.65-42.97-2.16-19.87-6.43-36.18-12.83-48.88-3.22-10.12-6.16-20.72-8.79-31.79-5.77-23-10.84-46.75-15.17-71.53-2.32-12.68-4.35-25.61-6.12-38.81-2.48-18.04-4.54-36.35-6.21-54.94,1.21,14.08,2.42,28.19,3.63,42.27-1.96-23.65-3.91-47.28-5.87-70.93,1.09,14.11,2.19,28.21,3.28,42.32-1.56-19.62-2.66-39.41-3.35-59.33-.58-15.36-.83-30.74-.74-46.15-.13-15.73.07-31.47.62-47.15.68-21.6,1.81-43.04,3.41-64.36-2.3,27.63-4.6,55.24-6.91,82.88,3.22-38.51,6.46-77.02,9.68-115.5-7.16,66.02-14.34,132.03-21.5,198.03,5.86-46.4,11.73-92.78,17.58-139.18-10.53,75.94-21.06,151.88-31.59,227.84,13.39-90.07,26.76-180.14,40.14-270.23-12.23,74.49-24.46,148.95-36.69,223.43,7.51-43.39,15.02-86.81,22.53-130.21-6.79,36.6-13.59,73.23-20.38,109.84,8.02-42.47,16.05-84.96,24.07-127.43-12.86,60.96-25.71,121.91-38.57,182.87,48.06-164.58,96.11-329.16,144.17-493.74-17.87,57.3-35.75,114.62-53.62,171.92,12.48-36.23,24.59-73.16,36.33-110.81,8.92-27.48,17.15-56.07,24.7-85.76,3.44-18.54,6.71-37.28,9.78-56.2,1.53-11.75,2.41-23.8,2.61-36.13.65-28.96-1.67-57.72-4.73-85.56-3.75-34.1-9.01-66.82-15.11-98.86-17.18-90.35-40.21-173.78-66.99-249.16-28.75-80.92-61.11-153.43-96.3-217.75-77.15-141.03-165.14-239.24-251.83-340.31-38.99-45.47-77.88-91.5-116.34-139.63-46.3-57.98-91.85-119.21-136.91-182.59l8.07,11.47c-25.8-36.85-51.34-74.81-77.49-110.21-25.25-34.17-51.02-66.17-77.18-96.11-19.64-22.5-39.46-43.97-59.29-65.47-18.76-20.34-37.35-41.16-55.48-64.56l8.22,11.07c-10.59-14.63-21.07-29.59-30.16-49.43-3.22-7.04-6.16-14.46-8.78-22.82-1.29-3.63-2.37-7.57-3.27-11.8-1.52-5.69-2.72-11.78-3.59-18.26,2.23,13.88,4.47,27.73,6.7,41.61-1.41-8.09-2.36-16.49-2.87-25.2,1.38,29.34,2.75,58.65,4.13,87.99-1.44-38.21-2.89-76.42-4.33-114.62.82,70.98,1.63,141.96,2.45,212.96-.07-80.4-.16-160.8-.23-241.2-.94,70.43-1.89,140.85-2.83,211.28,1.64-51.59,3.28-103.2,4.91-154.78l-13.34,244.45c5.79-92.35,11.57-184.7,17.37-277.02-2.9,40.21-5.8,80.42-8.7,120.64,3.76-45.85,7.53-91.7,11.29-137.55-3.32,39.89-6.64,79.77-9.95,119.66.59-6.09,1.18-12.18,1.77-18.26-4.22,39.26-8.44,78.52-12.67,117.8,5.97-54.64,11.9-109.31,17.78-164-4.69,38.63-9.37,77.29-14.05,115.93,6.95-54.57,13.88-109.14,20.83-163.7-5.12,38.13-10.25,76.24-15.38,114.37,16.7-107.88,33.42-215.79,50.12-323.67-12.93,73.93-25.87,147.87-38.8,221.83,16.56-90.87,33.38-181.47,50.47-271.76-6.93,36.7-13.84,73.38-20.77,110.09,11.23-54.39,21.4-109.86,30.52-166.43,2.72-16.01,5.37-32.04,7.97-48.15,3.6-22.17,4.96-45.75,6.38-69.22l1.11-19.39c.38-10.67.22-21.27-.49-31.79-1.02-20.62-3.22-41.01-6.49-60.26-7.34-43.34-17.84-83.05-29.34-120.59-19.55-63.81-43.05-118.81-66.97-172.95-15.16-34.3-31.03-67.02-47.73-96.86-13.62-24.35-27.59-47.5-41.84-69.6-17.69-27.38-36.15-51.99-54.85-75.11-18.22-22.55-36.76-43.47-55.67-62.48-34.93-35.13-70.99-64.79-107.57-88.22-31.15-19.94-62.61-35.83-94.31-49.63-7.32,16.61-9.38,37.63-6.19,63.09,4.73,71.58,10.94,142.43,18.64,212.51,6.87,70.6,15.2,140.15,25,208.68,2.15,26.08,8.07,42.29,17.76,48.61,20.32,10,40.66,20.17,60.67,33.45,17.35,11.5,34.5,24.45,51.36,39.66,17.96,16.19,35.67,34.72,52.77,55.62,11.88,14.48,23.48,30.14,34.83,46.98,11.53,17.14,22.7,35.53,33.51,55.19-2.39-4.61-4.8-9.22-7.2-13.8,7.71,14.81,15.43,29.61,23.14,44.45l-7.04-14.26c7.42,15.58,14.85,31.17,22.27,46.75l-6.87-14.71c9.89,21.72,19.27,44.67,28.14,68.85,4.21,12.05,8.42,24.1,12.63,36.15,12.42,36.63,23.92,75.54,33.58,116.75,3.58,14.46,6.74,29.44,9.47,44.95,2.46,13.23,4.41,26.86,5.83,40.91,1.57,12.2,2.65,24.65,3.27,37.36.78,14.58,1.02,29.21.73,43.89.73-14.21,1.44-28.41,2.17-42.62-3.41,39.18-6.81,78.37-10.22,117.53-5.69,59.7-10.58,119.76-14.66,180.19-2.91,34.07-5.07,68.4-6.47,103-2.72,28.49-2.83,57.05-.34,85.66,1.09,14.06,2.45,28.06,4.38,41.59,4.3,30.09,11.03,58.13,19.1,83.25,16.54,51.56,38.62,91.87,61.68,125.07,29.55,42.57,60.51,78.52,91.84,112.67,22.06,24.05,44.09,48.2,65.69,74.64,26.03,31.84,51.49,66.12,76.7,101.54l-8.08-11.45c42.28,60.88,84.45,122.14,127.4,180.24,39.02,52.79,78.53,103.47,118.3,152.88,37.94,47.13,76.14,92.95,114.01,140.38,20.63,25.83,41.08,52.49,60.87,81.95,9.66,14.33,19.15,29.34,28.45,45.02,9.09,15.33,17.96,31.42,26.57,48.28-2.35-4.74-4.7-9.5-7.05-14.23,6.51,13.2,13.01,26.43,19.52,39.64-2.31-4.84-4.63-9.7-6.95-14.53,6.27,13.58,12.55,27.18,18.82,40.76-2.28-4.96-4.55-9.9-6.83-14.86,7.53,17.69,15.05,35.3,22.08,54.17,6.8,18.24,13.31,37.31,19.4,57,13.05,42.24,24.26,87.81,33.2,135.89,7.57,40.69,13.16,82.83,17.5,126.15,1.34,10.95,2.24,22.1,2.72,33.45.84,10.15,1.25,20.39,1.25,30.72.38,9.29.37,18.62-.04,27.89-.1,12.43-.77,24.73-1.96,36.88,1.53-14.36,3.08-28.69,4.61-43.04-2.34,21.32-4.69,42.67-7.04,63.99,1.72-14.26,3.44-28.54,5.17-42.79-2.73,20.44-5.45,40.86-8.18,61.31,1.9-14.18,3.79-28.34,5.69-42.52-1.25,8.37-2.79,16.39-4.6,24.08-1.5,7.24-3.21,14.18-5.14,20.82,6.86-24.78,13.73-49.56,20.59-74.34-10.51,36.35-21.04,72.71-31.55,109.06,17.94-57.45,35.88-114.9,53.82-172.35l-3.84,11.17c19.56-53.99,39.14-107.96,58.7-161.95-3.04,7.54-6.33,14.36-9.9,20.39,4.96-8.57,9.92-17.14,14.88-25.73-18.19,27.58-38.24,47.38-55.51,78.59l-7.11,13.7c-4.02,10.4-8.06,20.77-12.08,31.17-5.93,24.4-11.85,48.83-17.78,73.23-7.66,35.8-15.32,71.63-22.99,107.43-7.17,36.4-14.34,72.81-21.51,109.21-4.46,26.18-8.93,52.34-13.39,78.52-.98,14.03-1.98,28.06-2.97,42.09-2.53,65.87-3.02,131.66-1.43,197.4-.09,19.54,1.16,38.63,3.77,57.3,1.35,18.14,3.17,36,5.45,53.57,2.8,23.2,5.98,46.02,9.58,68.6,6.96,43.74,15.32,85.94,25.02,126.52,9.08,38.03,19.27,74.29,30.22,109.31,5,16.01,10.1,31.82,15.31,47.4,2.52,7.19,4.9,14.66,7.15,22.35,5.09,14.78,8.55,31.79,10.38,51.06-1.89-14.33-3.77-28.64-5.65-42.97,7.41,86.64,14.34,173.5,20.77,260.59,1.37,18.36,5.64,29.11,12.81,32.22,5.36-2.18,8.53-9.4,9.5-21.62,4.36-19.67,5.72-41.19,4.06-64.56.38-49.28-.33-98.44-2.14-147.52v-.02Z"/>
  <path class="cls-1" d="M1438.01,4177.25c-2.33-18.97-4.68-37.96-7.01-56.92,3.77,5.69,7.54,11.37,11.31,17.06-3.59-7.39-6.76-15.63-9.53-24.8-5.65-16.44-10.61-34.1-14.86-52.99,6.14,24.15,12.28,48.28,18.4,72.43-7.83-31.84-15.67-63.69-23.49-95.53,5.99,24.4,12,48.83,17.99,73.23l-5.1-23.1c42.79,263.54,85.58,527.09,128.37,790.66-43.74-435.74-87.48-871.46-131.23-1307.2-25.91,313.4-51.82,626.8-77.73,940.23,73.89-376.86,129.12-766.48,165.7-1168.9-.31-7.72-.62-15.43-.93-23.15-1.51-28.71-5.48-56.6-9.64-83.63-5.43-35.28-12.67-68.87-20.18-101.77-9-39.49-19.28-77.52-30.04-114.35-10.84-37.13-23.07-72.06-35.51-106.1-12.53-34.3-25.99-66.59-39.82-97.84-30.07-67.92-63.35-127.63-97.77-181.94-61.25-96.68-126.71-176.56-191.77-256.9-31.81-39.28-63.58-78.77-95.1-119.36-35.55-45.75-70.73-93.03-105.68-141.38,3.94,5.46,7.87,10.92,11.81,16.39-28.71-40.89-57.28-82.33-85.65-124.59-16.89-25.15-33.65-50.71-50.91-74.36-12.99-17.81-26.1-35.1-39.33-51.84-23.15-29.34-46.65-57.02-70.27-84.06-20.61-23.58-41.3-46.7-61.65-71.58,78.68,270.43,157.36,540.89,236.06,811.33-70.34-459.74-140.66-919.49-211-1379.23,1.01,11.02,2,22.07,3.01,33.1l.46-19.22-.67-20.72c-1.08-14.88-2.19-29.74-3.32-44.6-.43-7.97-1.21-15.73-2.36-23.3-4.99-39.66-13.73-75.79-23.46-109.66-15.43-53.69-33.83-102.2-53.26-147.54-10.33-24.1-21.11-47.03-31.91-69.88-6.44-13.53-12.89-27.03-19.33-40.56-9.87-19.94-20.06-38.88-30.59-56.77-56.56-99.16-119.46-176.21-184.77-235.66-26.86-24.45-54.21-45.72-81.82-64.69-29.64-20.37-59.69-36.43-89.91-50.78-1.94,25.58.31,49.11,6.75,70.58,11.11,65.39,25.18,127.17,42.21,185.33,17.57,68.92,35.15,137.85,52.72,206.77,29.93,117.23,61.13,232.45,93.6,345.62,10.13,33.77,19.9,67.95,28.64,103.97,15.27,62.99,26.96,129.55,39.42,196.1-4.85-25.96-9.69-51.89-14.55-77.84,6.2,36.75,12.41,73.53,18.61,110.29-4.41-26.51-8.82-53.01-13.23-79.52,8.63,69.83,17.25,139.68,25.88,209.5-2.46-28.31-4.91-56.6-7.37-84.91,4.56,49.43,8.65,99.06,12.22,148.95.77,10.57,1.53,21.17,2.31,31.74,2.32,31.72,4.6,63.49,7.54,94.9,1.76,15.18,3.34,30.47,4.73,45.87,1.19,13.3,2.54,26.51,4.04,39.64,3.98,37.43,7.81,74.36,12.94,110.91,7.74,55.17,17.74,108.58,30.26,158.39,7.09,28.24,15.04,55.47,23.64,81.15,9.15,27.36,19.24,53.97,29.98,77.74,11.16,24.7,22.86,48.15,35.39,68.75,8.66,13.23,17.31,26.46,25.97,39.69,18.37,25.38,37.35,47.85,56.9,67.4,5.23,4.76,10.45,9.52,15.68,14.28,7.31,4.28,14.69,7.49,22.16,9.65,9.98,2.63,20.01,3.71,30.05,2.91,15.16-1.2,30.25-5.74,45.42-6.41,7.1-.3,14.12.45,21.15,3.03,8.24,3.01,15.95,8.77,23.77,15.58l-12.42-12.8c5.96,6.36,11.79,12.95,17.51,20.44,6.38,8.34,12.62,17.26,18.78,26.51,14.88,22.37,29.35,46.33,43.92,69.85,38.99,62.94,77.4,127.75,115.13,195.07,47.15,84.13,93.74,171.57,135.76,270.53,19.09,44.95,37.49,92.47,53.59,143.89,5.89,18.79,11.56,37.96,16.96,57.6,7.59,27.63,14.04,56.5,20.31,85.96-5.05-25.76-10.1-51.54-15.14-77.29,10.82,63.01,21.65,126.02,32.47,189.03-3.86-27.16-7.71-54.29-11.57-81.45,4.72,36.18,9.43,72.38,14.15,108.56-3.5-27.48-7.01-54.97-10.52-82.45,4.14,36.33,8.28,72.63,12.42,108.96-3.13-27.81-6.27-55.59-9.4-83.41.81,8.29,1.62,16.61,2.42,24.9-9.26-227.07-18.51-454.16-27.77-681.22,8.42,323.1,16.84,646.22,25.26,969.32,1.88-28.86,3.75-57.72,5.63-86.61-3.08,38.68-6.16,77.39-9.25,116.08,2.81-28.44,5.63-56.87,8.44-85.28-3.89,37.58-7.67,75.24-11.35,112.97-.63,6.76-1.13,13.6-1.47,20.47-.46,6.94-.74,13.91-.85,20.92-1.42,27.94-1.39,55.77.07,83.46,1.7,40.04,3.66,80.05,6.18,119.83,3.65,57.52,8.62,114.45,16.04,169.87,9.53,71.1,23.05,138.62,40.48,200.41,10.14,36.85,22.04,70.25,35.71,100.17,11.59,35.73,24.68,67.72,39.25,95.96,13.23,26.48,27.12,50.78,41.21,74.49,10.62,15.98,20.59,34.07,29.91,54.27,7.51,14.36,15.19,28.14,23.05,41.34,16.87,28.96,34.16,56.42,51.9,82.15,25.9,37.53,52.46,72.16,78.81,107.76,11.24,15.18,22.42,30.69,33.44,46.8,6.4,9.52,12.79,19.09,19.18,28.69,4.21,12.28,7.94,13.1,11.21,2.51.61-10.65,1.22-21.27,1.84-31.92-2.63-28.36-5.72-56.45-9.26-84.21-4.84-43.09-10.63-85.43-17.38-127.05-7.95-46.12-15.9-92.25-23.85-138.37-17.75-97.96-36.24-195.1-55.47-291.4-10.37-55.24-21.41-109.66-33.14-163.28-8.19-45.65-18.64-88.02-31.35-127.12l-10.78-14.48c-4.63,33.9-2.77,67.25,5.59,100.02l.03.02Z"/>
  <path class="cls-1" d="M1436.78,5305.13c-8.13-119.96-20.33-237.24-36.61-351.81-3.23-15.46-6.59-30.79-10.08-45.95-2.07-11.32-4.94-21.37-8.58-30.12-3.81-14.48-7.25-29.46-10.34-44.92,2.13,10.55,4.25,21.07,6.38,31.62-3.64-18.52-7.28-37-10.92-55.52,2.06,10.6,4.14,21.22,6.2,31.82-4.32-24.98-8.41-49.93-11.18-76.24-.87-8.99-1.74-17.96-2.61-26.96-1.57-18.44-2.7-37.06-3.39-55.82.62,22.95,1.24,45.9,1.86,68.85-.89-42.27-1.78-84.51-2.66-126.77.23,23.12.45,46.25.67,69.35.2-19.64.4-39.28.6-58.93-1.18,33.05-2.36,66.09-3.55,99.14,1.62-42.99,3.23-86.01,4.85-129-5.61,89.02-11.22,178.03-16.82,267.05,11.96-127.93,23.92-255.83,35.88-383.75-10.36,89.64-20.72,179.31-31.08,268.96,4.25-27.76,8.49-55.52,12.74-83.25-3.54,22.9-7.07,45.77-10.61,68.67,2.01-11.8,4.03-23.6,6.77-34.57,2.13-8.49,4.52-16.34,7.13-24-3.71,9.7-7.42,19.37-11.14,29.06,6.28-15.76,12.57-31.54,18.86-47.3-4.04,9.52-8.1,19.04-12.14,28.56,2.67-6.14,5.41-11.9,8.21-17.69,6.71-13.85,13.48-28.36,19.69-43.29,1.25-3.06,2.51-6.11,3.77-9.17,9.37-24.58,17.21-51.99,23.52-82.23,8.53-35.05,17.07-70.1,25.59-105.15,11.68-47.25,22.28-95.83,31.82-145.74,4.41-17.24,7.63-35.58,9.69-54.99,1.25-14.06,2.5-28.11,3.75-42.14,1.48-21.5,1.23-42.77.28-64.31-.75-14.03-1.79-27.91-3.15-41.64-1.31-16.06-3.06-31.87-5.23-47.43-2.38-18.01-5.15-35.7-8.27-53.04-3.22-19.57-6.82-38.76-10.8-57.52-2.99-13.63-5.96-27.28-8.95-40.91-4.54-18.94-9.31-37.56-14.31-55.82-10.13-37.83-21.02-74.16-32.74-109.16-22.54-67.27-47.78-128.4-74.91-184.82-15.18-31.57-31.27-61.53-47.64-89.37-16.58-28.19-33.5-55.19-50.89-80.4-31.61-45.82-64.18-87.44-97.23-126.85-62.78-74.84-126.33-145.79-188.75-222.46-31.69-38.93-63.11-79.2-94.22-120.76-17.74-23.7-35.33-48-52.87-72.58-17.79-24.93-35.31-50.99-53.14-75.74-28.47-39.54-57.48-76.59-87.08-110.94-24.19-28.06-48.73-54.12-73.22-80.57-10.7-11.57-21.39-23.3-31.92-35.75-8.78-10.37-17.63-21.1-26.02-33.22-6.86-9.92-13.76-20.22-19.88-32.75l-5.18-11.12c-3.04-6.94-5.74-14.58-8.12-22.87,2.6,10,5.22,20.02,7.82,30.01-3.39-10.7-5.8-22.5-7.18-35.35,2.19,22.4,4.39,44.8,6.57,67.2-2.56-30.74-5.12-61.46-7.68-92.2,4.26,110.74,8.52,221.45,12.79,332.19,2.78-147.97,5.55-295.96,8.33-443.93-6.12,111.17-12.23,222.33-18.35,333.52.8-7.92,1.87-15.58,3.18-23.07,1.67-11.07,3.84-21.6,6.52-31.54-2.45,10.37-4.89,20.77-7.35,31.14,6.08-23.15,11.57-47.05,16.48-71.7,1.62-8.54,3.16-17.16,4.62-25.86,2.99-17.36,5.95-34.75,9.25-51.79,2.59-13.35,5.33-26.53,7.95-39.84,6.24-31.57,12.24-65.62,17.27-97.54,6.07-38.88,11.75-78.09,17.03-117.65,4.35-34.4,8.71-68.8,13.05-103.2,3.58-30.42,6.51-61.18,8.8-92.27.54-13.15.63-26.36.27-39.54.03-13.83-.31-27.63-1.03-41.36-1.96-27.03-5.35-52.91-10.18-77.64-6.52-33.42-14.49-64.97-23.4-95.01-11.28-38.03-24.16-73.76-37.45-107.73-16.64-42.52-34.07-83.25-52.3-121.76-23-48.55-47.85-91.72-73.62-131.13-25.49-39.01-51.93-74.41-79.35-104.98-22.37-24.95-45.12-47.83-68.32-67.97-14.64-12.73-29.36-24.15-44.23-35.13-16.76-12.38-33.7-23.33-50.72-33.42-25.32-15.01-50.94-26.53-76.61-37.38-6.52,13.25-8.36,30.49-5.49,51.76,5.24,54.42,11.92,107.81,20.07,160.15,7.34,53.04,16.09,104.65,26.24,154.86,3.33,20.85,9.26,31.44,17.77,31.77,5.18,2.81,10.37,5.64,15.54,8.44-2.78-1.6-5.57-3.21-8.35-4.81,8.3,4.79,16.61,9.6,24.9,14.38l-8.32-5.04c8.65,5.31,17.29,10.62,25.94,15.96l-8.29-5.26,26.81,17.74c-2.76-1.83-5.52-3.66-8.26-5.49,9.64,6.59,19.19,13.9,28.64,21.92,9.88,7.82,19.64,16.41,29.28,25.78,10.09,9.47,20.02,19.82,29.8,31.04,10.16,10.92,20.13,22.77,29.92,35.53,16.87,22.05,33.26,45.82,49.13,71.86,9.79,15.53,19.26,32.17,28.42,49.86,9.32,17.44,18.25,35.98,26.78,55.62,8.77,18.82,17.1,38.73,25,59.7,5.08,13.98,10.15,27.96,15.23,41.97,7.3,20.95,14.19,42.62,20.7,65.02,6.1,19.72,11.85,40.01,17.26,60.88,8.92,35.13,17.63,71.48,23.5,110.29l4.64,33.4c2.35,19.49,3.96,39.31,4.84,59.48-.55-12.8-1.09-25.58-1.64-38.38.75,21.45,1.49,42.89,2.24,64.34-.41-12.85-.84-25.71-1.25-38.56.3,11.4.18,22.72-.35,34.05-.24,10.07-.82,20.04-1.74,29.89,2.29-24.8,4.59-49.61,6.88-74.41-1.18,11.5-2.36,23.02-3.55,34.52,9.23-68.37,18.44-136.77,27.67-205.14-1.77,10.82-3.56,21.65-5.33,32.47l11.94-69.25c-2.42,10.75-5.14,21-8.19,30.74,3.08-10.12,6.15-20.27,9.23-30.39-9.02,27.01-18.92,52.26-27.86,79.45-4.02,12.25-7.88,24.75-11.63,37.48-5.77,18.69-10.97,38.26-15.58,58.7-3.15,13.03-6.16,26.26-9.01,39.69,2.45-10.37,4.89-20.74,7.34-31.12-5.77,18.64-11.65,37.11-17.04,56.42-3.54,12.7-6.67,25.66-9.68,39.11-4.86,20.87-7.22,43.24-7.08,67.17-2.38,43.92-3.57,88.07-3.55,132.44-.09,32.75-.2,65.49-.29,98.24-1.66,35.95.47,70.1,6.39,102.47,7.16,27.66,14.34,55.32,21.5,82.95,2.56,6.29,5.24,12.23,8.04,17.86,3.83,7.94,7.78,15.41,11.85,22.57,10.03,17.61,20.62,33.2,31.45,47.78,29.09,39.21,59.63,71.7,89.94,104.83,20.93,22.87,41.64,46.85,62.07,72.21,23.95,29.74,47.43,61.51,70.69,94.3,29.29,41.31,58.28,83.83,87.79,124.27,25.24,34.57,50.64,68.42,76.2,101.52,48.59,62.94,97.78,123.09,146.71,184.45,50.57,63.44,101.51,126.55,147.96,206.85,23.08,39.91,45.05,83.73,64.98,132.64,19.17,47.05,36.38,98.64,51.16,154.18,14.06,52.86,25.95,109.16,34.87,168.26,3.77,25.05,6.94,50.71,9.75,76.52,2.05,19.59,3.83,39.33,5.3,59.23,1.86,19.89,2.97,40.06,3.33,60.51-.09-13.8-.19-27.61-.29-41.39.13,25.91.27,51.79.4,77.69.09-13.93.19-27.86.29-41.79l-1.51,74.76c.29-14.03.58-28.06.87-42.09-.73,18.79-2.18,37.28-4.33,55.42,10.2-63.96,20.4-127.93,30.62-191.89-15.04,88.19-30.1,176.36-45.14,264.55,21.14-97.44,42.28-194.87,63.41-292.28-10.36,43.94-20.72,87.89-31.08,131.83,15.25-58.28,30.5-116.55,45.75-174.83-2.43,7.44-4.85,14.88-7.28,22.32,4.3-9.6,8.61-19.17,12.92-28.76-1.57,3.13-3.12,6.24-4.69,9.37-1.76,2.78-3.53,5.54-5.29,8.32-4.94,7.32-10.39,13-15.61,18.99-10.77,12.33-21.88,22.85-32.28,37.03-11.65,15.86-22.28,35.43-31.53,58.78-4.59,11.6-8.74,23.88-12.6,36.95-2.58,8.22-4.89,16.86-6.95,25.91-7.02,24.98-11.1,53.11-12.25,84.36-3.09,33.12-6.17,66.27-9.26,99.39-2.55,33.4-5.1,66.79-7.66,100.19-1.17,23.7-2.34,47.4-3.53,71.08,1.46,58.35,2.92,116.68,4.38,175.03,1.99,24.83,5.15,49.51,8.54,73.41,2.93,20.69,6.01,41.26,9.53,61.43,7.17,41.19,16,80.55,26.18,117.83,5.35,19.59,11.03,38.68,17.04,57.12,2.17,6.81,4.4,13.5,6.69,20.07,4.41,11.85,7.93,25.2,10.55,40.04-2.27-10.5-4.53-20.97-6.8-31.47,11.52,81.23,21.39,163.63,29.61,247.21,1.86,19.79,6.66,30.99,14.4,33.62,5.43-4.56,8.21-13.53,8.35-26.86,3.39-23.95,3.64-48.76.76-74.46-2.14-56.17-5.35-111.97-9.65-167.41v.13Z"/>
  <path class="cls-1" d="M1381.35,4506.58c-3.33-8.44-7.12-11.88-11.4-10.27-4.46,2.18-7.72-3.01-9.8-15.56l8.58,21.52c-6.68-19.84-13.05-39.79-18.5-61.81-4.7-18.99-8.93-38.53-12.69-58.7-3.88-20.8-7.37-42.14-10.11-63.96-1.07-9.02-2.13-18.01-3.19-27.03-1.99-18.57-3.6-37.31-4.83-56.25,1.33,24.28,2.66,48.55,3.99,72.83-1.86-33.97-3.72-67.97-5.58-101.94,1.07,24.33,2.14,48.66,3.2,72.98-1.4-34.25-2.81-68.47-4.21-102.72.8,24.35,1.59,48.73,2.38,73.08-.86-44.75-1.71-89.49-2.57-134.21.21,24.38.41,48.76.62,73.13.07-34.83.16-69.65.23-104.45-.1,24.35-.21,48.71-.31,73.06.6-34.95,1.2-69.88,1.81-104.83l-1.28,72.93c.39-10.8.78-21.6,1.17-32.4-18.36,186.05-36.72,372.1-55.08,558.16,29.02-247.28,58.05-494.57,87.07-741.85-45.73,238.49-91.48,477.01-137.21,715.49,68.01-288.37,136.02-576.75,204.03-865.12,1.06-17.29,2.01-34.6,2.87-51.94.77-8.44.95-16.91.56-25.46-.05-11.65-.58-23.2-1.58-34.62-3.74-45.92-11.03-89.54-19.51-131.46-6.03-29.81-12.66-59-19.88-87.26-3.25-12.43-6.49-24.83-9.75-37.26-3.37-11.5-6.73-23.02-10.1-34.52-17.16-57.42-36.54-111.39-57.23-161.47-81.44-197.03-184.06-328.68-285.29-456.06-48.01-60.41-95.97-121.01-143.35-184.25-27.92-37.28-55.62-75.54-83.13-114.6-26.27-37.31-52.22-75.91-78.32-113.97-45.55-66.39-93.08-123.77-141.27-177.96-18.52-20.82-37.23-40.86-55.42-63.41-5.93-7.37-11.83-14.88-17.64-22.85-7.41-10.2-14.33-21.5-21.18-33.7,3.32,6.01,6.64,12.03,9.94,18.06-4.44-8.89-8.72-17.69-12.47-28.36-1.4-3.53-2.61-7.42-3.65-11.6-1.67-5.49-3.03-11.4-4.06-17.76,4.18,22.57,8.37,45.15,12.55,67.72-4.73-26.61-9.46-53.21-14.18-79.82,27.9,261.04,55.8,522.05,83.71,783.09-15.97-348.68-31.92-697.36-47.89-1046.06-19.35,210.03-38.7,420.06-58.05,630.06,28.78-256.75,57.55-513.51,86.33-770.26,1.08-9.4,1.71-18.94,1.89-28.66.5-14.18.25-27.99-.58-42.07-1.26-21.6-2.35-43.22-4.96-64.16-2.21-17.81-5.35-35.05-8.67-51.79-5.07-25.51-11.64-49.53-18.41-72.56-8.14-27.68-16.95-54.32-26.4-79.47-8.67-23.1-17.66-45.57-26.9-67.32-13.71-32.22-27.73-63.76-42.32-93.6-55.1-112.72-118.19-200.71-184.6-268.35-29.67-30.24-60-56.52-90.84-78.87-29.46-21.35-59.33-38.48-89.4-53.74-6.19,32.7-5.88,66.62.92,101.72,13.4,117.98,28.25,234.91,44.56,350.73,15.49,116.5,32.42,231.75,50.77,345.77,3.2,37.98,11.32,65.64,24.36,82.98,19.34,30.49,38.73,60.73,56.75,95.73,20.36,39.56,39.44,83.86,55.93,132.86,17.32,51.44,32.31,106.98,44.25,166.76,4.91,24.58,9.78,49.31,13.94,74.69,4.68,28.44,8.57,57.25,12.05,86.64l-3-28.71c1.76,17.29,3.51,34.57,5.28,51.89l-2.73-28.86c1.52,17.14,3.05,34.27,4.57,51.41-.83-9.67-1.65-19.32-2.48-28.99,1.35,17.04,2.69,34.07,4.03,51.14-.76-9.7-1.5-19.39-2.26-29.09,1.22,17.01,2.44,34.02,3.66,51.01-.69-9.72-1.39-19.44-2.08-29.16,1.14,17.04,2.29,34.05,3.43,51.09-.65-9.75-1.31-19.47-1.96-29.21,2.66,39.91,4.92,80.57,8.85,120.01,2.05,20.57,4.4,40.89,7.12,60.98,6.76,49.78,15.7,97.94,26.36,143.56,11.2,47.93,23.76,94.03,36.99,138.82,3.82,14.58,8.23,27.96,13.24,40.14,3.76,10.02,7.73,19.57,11.91,28.59,6.75,14.61,13.8,28.29,21.19,40.96,27.31,46.83,58.3,77.92,88.22,113.37,30.38,36,59.34,78.22,88.94,117.7,18.5,24.68,37.22,48.38,55.66,73.33,25.24,34.15,50.03,70.28,74.47,107.66,29.38,44.92,58.14,92.17,86.89,139.43,24.43,40.14,48.77,80.6,72.89,121.84,43.78,74.86,86.91,152.68,127.25,238.24,15.51,32.9,30.74,66.52,44.7,103.27,7.43,19.57,14.61,40.56,20.95,62.26,5.86,19.99,11.09,40.69,16.09,62.01-1.91-8.74-3.83-17.51-5.73-26.26,3.35,15.58,6.7,31.19,10.06,46.78-1.8-8.87-3.62-17.76-5.42-26.63,4.2,22.42,8.4,44.87,12.61,67.3-1.59-9.09-3.18-18.21-4.77-27.31l7.68,47.45c-1.47-9.22-2.94-18.41-4.43-27.63,4.61,31.89,8.48,64.19,10.72,97.61,2.88,42.89,3.72,86.39,4.98,129.65-.25-9.82-.49-19.62-.74-29.44.27,13.55.16,27.06-.33,40.59-.31,9.09-.8,18.14-1.48,27.11-1.36,19.72-3.32,39.06-5.14,58.53-3.67,39.08-6.46,78.87-7.6,118.93-1.42,49.83.85,99.79,5.26,148.47,5.46,60.21,14.12,118.61,24.67,174.68,5.73,30.47,12.11,60.23,18.85,89.47,5.06,21.72,10.24,43.27,15.53,64.66,3.19,13.5,6.39,27.01,9.58,40.49,10.95,45,23.31,87.96,36.4,129.43,12.27,38.81,25.24,76.29,39,112.07,21.02,54.59,43.36,105.88,66.27,155.74,9.6,20.9,19.21,41.76,28.97,62.26,4.39,10.97,9.41,19.74,15.09,26.31,4.44.38,8.19-3.48,11.26-11.53,8.54-28.14,10.88-60.48,6.98-97.01-4.01-117.63-9.54-234.83-16.58-351.63-6.19-117.08-13.87-233.58-23.07-349.5-.3-37.71-6.13-67.35-17.49-88.92v.02Z"/>
  <path class="cls-1" d="M1511.9,5201.23c-13.51-101.17-27.01-202.36-40.52-303.53-4.94-28.59-9.86-57.15-14.8-85.74-3.26-14.96-6.51-29.91-9.78-44.87-3.09-11.32-6.5-21.97-10.25-31.99-10.51-29.34-18.37-63.69-25.68-98.04,2.9,15.18,5.8,30.34,8.7,45.52-4.42-23.33-8.84-46.63-13.26-69.95,2.8,15.31,5.6,30.64,8.4,45.95-4.16-23.75-8.32-47.48-12.48-71.23,2.69,15.48,5.38,30.94,8.07,46.43-3.32-21.57-6.41-43.09-8.8-65.42-2.47-23.02-4.08-46-5.55-69.53,2.71,83.1,5.41,166.21,8.12,249.34-2.56-132.84-5.12-265.67-7.69-398.51-.36,35.33-.73,70.65-1.09,105.98.25-10.15.51-20.29.76-30.44-4.55,100.84-9.1,201.69-13.66,302.53,5.45-107.76,10.91-215.52,16.36-323.27-5.81,101.09-11.6,202.16-17.41,303.25,6.77-107.61,13.55-215.24,20.32-322.85-10.32,136.47-20.62,272.94-30.94,409.38,37.27-237.14,76.53-472.29,117.74-705.5,2.12-11.5,3.88-23.35,5.3-35.5,2.38-14.53,4.32-29.36,5.83-44.55l.94-18.09c.31-10.5.21-20.97-.32-31.39-.31-12.05-1.02-24-2.14-35.8-1.57-17.54-3.53-34.93-5.63-52.11-3.87-31.44-9.04-62.66-14.82-92.3-5.96-30.64-12.51-60.53-19.52-89.87-7.24-30.29-15.33-59.5-23.85-87.81-8.62-28.64-17.6-56.5-27.07-83.53-39.8-113.6-87.09-210.18-138.03-293.41-54.57-89.14-113.03-162.3-171.62-234.46-52.19-64.29-104.21-129.5-155.57-197.65-28.71-38.08-57.18-77.17-85.46-117.08-29.08-41.04-57.66-84.23-86.95-124.39-25.16-34.5-50.9-66.49-76.89-97.16-23.31-27.51-46.99-53.06-70.5-79.52-16.19-18.21-32.37-36.8-47.84-58.43-6.1-8.52-12.11-17.44-17.78-27.53-1.95-3.68-3.9-7.34-5.84-11.02-3.42-6.81-6.57-14.26-9.47-22.37,22.32,133.31,44.64,266.63,66.98,399.94-20.36-162.75-40.71-325.53-61.08-488.28,4.7,130.18,9.4,260.34,14.1,390.52-2.42-100.59-4.84-201.16-7.26-301.75,1.69,97.06,3.38,194.14,5.08,291.2-1.14-101.27-2.27-202.56-3.41-303.83-.08,131.76-.16,263.54-.24,395.3,10.89-225.61,21.77-451.25,32.66-676.86-10.52,136.9-21.05,273.77-31.56,410.66,10.43-111.29,20.87-222.61,31.3-333.9-10.22,101.49-20.45,202.99-30.67,304.48,13.19-122.79,26.38-245.56,39.56-368.35,5.04-38.86,8.86-78.29,11.47-118.33.94-12.18,1.41-24.48,1.42-36.9.53-15.78.93-31.62,1.2-47.43-.46-37.68-5.36-73.46-11.94-107.36-8.72-44.92-20.23-86.84-32.67-126.22-9.32-29.49-19.49-57.32-30-84.33-4.55-12.05-9.25-23.75-14.1-35.08-8.17-19.87-16.44-39.49-24.82-58.83-12.1-26.81-24.61-52.51-37.45-77.27-16.23-31.32-33.36-59.95-50.81-87.09-30.75-47.83-62.97-89.42-96.21-126.22-17.42-19.29-35.26-36.48-53.22-52.56-16.98-15.18-34.12-29.41-51.49-41.87-12.99-9.32-26.05-18.04-39.18-26.18-17.77-11.02-35.71-20.19-53.66-29.21-5.77,21.97-5.8,45.42-.07,70.38,8.01,53.29,17.02,105.55,27.02,156.84,11.72,64.79,24.18,128.75,37.38,191.89,7.56,47.1,18.38,88.94,32.46,125.5,19.85,18.82,39.71,37.78,59.05,59.58,16.6,18.69,32.72,39.56,48.48,62.06,43.27,61.73,82.52,140.7,114.99,233.38,15.67,44.72,29.63,92.27,41.81,142.98,11.02,45.85,20.88,93.18,28.61,142.81,6.02,38.71,10.89,78.22,13.37,119.21,2.15,35.3,2.33,70.5,1.96,106.05.33-18.64.67-37.28,1.01-55.92-.49,25.88-.97,51.79-1.46,77.67l1.3-55.9c-.96,40.19-2.32,80.82-2.79,121.19-.21,18.69.08,37.16.68,55.8,8.53-105.35,17.06-210.7,25.59-316.06-.57,5.41-1.15,10.8-1.72,16.21,13.13-101.87,26.25-203.74,39.39-305.58l-4.48,16.54c-10.99,47.93-18.29,99.21-21.91,153.86-7.93,75.46-15.07,151.38-21.41,227.72-5.73,60.83-10.4,122.14-14.02,183.92-3.82,29.11-1.9,54.09,5.73,75.01,30.45,164.71,75.73,283.64,135.82,356.82,6.21,7.87,12.44,15.68,18.68,23.45,14.7,18.24,29.54,35.83,44.33,53.64,38.52,46.38,76.1,96.88,113.03,150.25,22.86,33.02,45.41,67.25,68.11,100.89,22.35,33.15,44.78,66.02,67.23,98.76,38.88,56.72,77.87,112.94,116.48,170.72,36.53,54.67,72.76,110.66,107.76,170.92,36.67,63.11,71.32,133.59,99.46,219.05,25.77,78.29,45.58,167.66,57.12,263.87,5.37,44.77,8.96,90.72,10.68,137.15.81,22.37,1.23,44.8,1.28,67.25.46,23.65.12,47.23-1.01,70.73,1.06-19.37,2.12-38.76,3.17-58.13-1.73,29.84-3.46,59.65-5.19,89.49,1.32-19.42,2.63-38.83,3.96-58.25-2.24,28.96-4.48,57.93-6.72,86.86,1.58-19.42,3.15-38.86,4.72-58.28-1.04,12.78-2.36,25.35-3.99,37.73-1.3,11.15-2.8,22.15-4.53,32.97-2.72,17.69-5.87,34.95-8.9,52.34-2.34,13.45-4.57,26.93-6.57,40.74-2.69,18.92-5.36,37.86-8.05,56.77-1.46,11.27-2.31,22.85-2.57,34.7,46.74-202.94,93.48-405.88,140.22-608.81-5.63,9.7-11.18,19.34-17.1,27.96-5.47,7.97-11.01,15.68-16.41,23.95-4.61,7.04-9.09,14.43-13.43,22.42-5.75,10.6-10.9,22.15-16.06,34.4-8.2,31.34-13.98,65.09-17.32,101.27-9.15,67.47-17.14,135.74-23.97,204.84-5.16,51.04-10.33,102.07-15.49,153.13-7.11,53.29-10.33,107.66-9.61,163.08,11.01,104.78,28.53,201.33,52.59,289.68,4.7,17.24,9.62,34.1,14.77,50.58,7.65,24.23,15.66,47.75,24.08,70.43,8.43,22.67,16.71,43.09,25.34,64.01,5.54,13.3,11.06,26.66,16.58,40.01,6.46,14.71,11.88,31.42,16.26,50.16-3.26-14.96-6.51-29.91-9.78-44.87,11.44,66.02,22.65,132.29,33.65,198.73,2.28,23.43,7.91,37.13,16.89,41.09,5.42-8.62,7.58-20.54,6.46-35.78,1.7-32.27.17-64.21-4.59-95.83-6.18-71.88-13.42-143.13-21.72-213.76l.05-.05Z"/>
  <path class="cls-1" d="M1408.1,3908.97c-.08,6.04-.16,12.05-.24,18.09.18-10.77.35-21.55.53-32.34-1.49,1.58-2.98,3.13-4.47,4.71,75.85,291.38,151.71,582.78,227.57,874.16-82.4-422.84-164.81-845.65-247.22-1268.49,19.94,378.57,39.89,757.13,59.82,1135.7,20.47-475.73,40.93-951.43,61.4-1427.16-1.24,11.2-2.48,22.37-3.72,33.57,3.54-22.05,5.92-44.72,7.14-68.02.06-6.97.12-13.93.19-20.9-.15-26.31-3.03-52.44-6.08-77.54-2-15.93-4.36-31.54-7.1-46.8-2.8-17.31-5.95-34.22-9.47-50.76-7.96-38.73-17.19-76.24-26.93-112.49-21.19-78.9-46.37-151.48-74.04-217.57-28.12-67.17-59.01-127.85-91.64-181.77-63.32-104.65-131.92-187.96-200.71-269.21-29.94-35.38-59.93-70.55-89.68-106.81-35.75-43.54-71.09-88.87-106.19-135.39,4.31,5.74,8.64,11.47,12.95,17.21-28.26-39.16-56.37-78.92-84.28-119.53-31.4-45.72-62.21-93.88-94.2-137.22-24.68-33.45-49.84-64.69-75.28-94.58-22.66-26.63-45.54-52.19-68.29-78.34,104.16,269.73,208.31,539.46,312.46,809.17-110.69-400.67-221.38-801.33-332.06-1201.97,20.92,344.99,41.86,689.99,62.78,1035.01,9.78-441,1.29-877.82-25.47-1310.43-2.77-18.62-6.17-36.53-10.2-53.74-10.49-45.87-24.13-87.51-38.49-126.57-18.78-51.01-39.61-96.88-60.94-141.48-13.12-28.41-26.75-55.29-40.89-80.65-14.26-25.68-28.93-49.91-43.99-72.73-56.65-85.96-118.28-152.43-181.67-203.46-27.37-22.02-55.15-41.14-83.17-57.62-24.22-14.23-48.63-25.93-73.15-36.65.55,43.57,7.53,81.88,20.94,114.92,36.55,125.42,74.32,248.66,113.31,369.7,38.31,122.31,77.81,242.35,118.51,360.08,9.75,39.84,23.24,66.04,40.53,78.59,5.56,184.32,11.12,368.62,16.68,552.94l-3.4-95.71c1.25,61.91,2.21,123.87,2.83,185.83.53,9.95,1.07,19.92,1.6,29.86,1.62,28.74,4.24,56.72,7.09,84.91,2.61,25.86,5.84,51.11,9.81,75.96,4.27,26.68,8.99,53.04,14.61,78.24,12.6,56.42,28.09,108.08,46.45,154.36,24.6,62.01,53.39,112.07,85.08,150.85,30.71,37.58,63.38,63.89,96.87,82.73,9.18,5.36,18.45,9.42,27.82,12.18,7.5,3.78,15.06,4.69,22.71,2.63,12.14-1.6,24.3-6.29,36.12-13.03,13.49-7.69,26.54-18.52,39.71-28.81,8.05-6.29,16.09-12.98,24.36-17.24,5.9-3.03,11.8-5.24,17.84-5.64,3.37-.5,6.74-.2,10.09.9,4.43,1.3,8.76,3.61,13,6.86-4.66-3.48-9.31-6.97-13.97-10.45,4.51,3.76,8.9,8.27,13.14,13.55,3.59,4.36,7.08,9.12,10.49,14.26,7.89,11.47,15.48,24.03,22.95,37.03,21.03,36.55,41.33,75.69,61.41,115.2,24.31,47.85,48.21,96.93,71.91,146.54,13.78,28.84,27.45,57.93,40.99,87.41,9.82,21.15,19.45,42.79,28.89,64.92,9.03,21.15,17.83,42.82,26.41,65.02-8.76-23.02-17.53-46.05-26.29-69.1,16.69,44.82,33.4,89.64,50.09,134.49-8.52-23.6-17.03-47.23-25.56-70.83,12.14,34.57,24.28,69.15,36.42,103.72-8.38-23.95-16.75-47.88-25.12-71.83,7.15,20.8,14.01,42.14,20.56,64.04,6.25,20.87,12.15,42.32,17.71,64.31-61.87-275.8-123.73-551.62-185.6-827.41,74.98,458.16,149.95,916.33,224.93,1374.47,3.61-349.98,7.23-699.94,10.83-1049.92-65.65,418.23-86.92,836.16-63.81,1253.76l.8,11.5c1.51,19.04,4.4,37.63,6.79,56.1,7.3,56.32,13.93,113.12,21.27,169.42,5.91,45.27,12.2,90.42,19.83,134.19,7.24,41.49,15.05,82.58,24.49,121.44,9.62,39.66,20.17,78.04,32.47,113.22,12.6,36.03,26.14,69.93,40.82,101.04,31.03,65.84,66.31,118.28,102.84,164.25,9.86,10.62,19.33,22.97,28.4,37.06,9.32,14.03,18.84,27.21,28.55,39.56,17.38,22.5,35.18,42.87,53.17,62.33,29.28,31.67,59.29,59.23,88.81,89.54,13.65,14.03,27.12,29.01,40.4,44.95,4.69,5.64,9.37,11.22,14.08,16.79,3.56,7.04,7.3,8.64,11.23,4.84-.03-11.65-.06-23.3-.09-34.93-2.97-36.73-8.38-71.53-16.25-104.45-23.82-117.35-48.97-233.03-75.46-347.02-20.12-87.46-40.95-173.93-62.49-259.39-16.67-69.27-34.27-137.17-52.76-203.69-6.19-17.39-12.37-34.78-18.56-52.14-10.47-20.02-14.65-14.11-12.52,17.76l-.02-.07Z"/>
</svg>